<?xml version="1.0" encoding="utf-8"?>
<!-- Generator: Adobe Adobe Illustrator 29.2.0, SVG Export Plug-In . SVG Version: 6.00 Build 0)  -->
<svg version="1.1" id="Layer_1" xmlns="http://www.w3.org/2000/svg" xmlns:xlink="http://www.w3.org/1999/xlink" x="0px" y="0px"
	 width="812.52px" height="790.64px" viewBox="0 0 812.52 790.64" style="enable-background:new 0 0 812.52 790.64;"
	 xml:space="preserve">
<style type="text/css">
	.st0{fill:#06284C;}
	.st1{fill:#D9D9D9;}
	.st2{fill:#D2D3D4;}
	.st3{fill:#D3D4D5;}
	.st4{fill:#3BD8CB;}
	.st5{fill:#3DDFD0;}
	.st6{fill:#646464;}
	.st7{fill:#DDDDDD;}
</style>
<g>
	<path class="st7" d="M229.09,333.67c4.47-12.07,16.09-39.04,34.26-66.71c17.91-27.83,42.43-55.85,63.84-75.32
		c12.29-11.35,25.3-21.97,38.98-31.66c6.82-4.85,13.83-9.23,20.76-13.84c6.97-4.52,14.23-8.51,21.32-12.74
		c28.86-16.3,59.07-29.71,89.88-40.88c61.72-22.32,125.4-35.81,188.68-46.52c19.8-3.38,53.26-9.54,54.47,0.76
		c1.26,10.71-19.96,20.95-54.08,27.24c-41.31,7.64-82.48,15.84-122.72,26.94c-40.27,10.87-79.52,25.26-116.03,44.1
		c-26.58,13.86-52.21,29.81-75.61,47.8c-23.28,18.18-44.52,39.12-62.95,62.2c-18.38,23.12-34.05,48.42-45.89,75.28
		c-11.8,26.86-19.73,55.39-22.2,84.27c-2.39,25.92-0.07,52.04,6.58,76.99c1.77,6.31,3.48,12.3,5.9,17.97
		c2.37,5.72,5.06,11.32,8.2,16.54c6.28,10.36,14.16,19.55,23.31,25.08c9.01,5.71,19.26,7.57,29.13,5.33
		c9.91-2.15,19.59-8.52,27.36-17.01c3.89-4.24,7.31-9.02,10.16-14.08c1.43-2.55,2.71-5.11,3.75-7.92c1.03-2.76,2.33-5.46,3.18-8.28
		c3.59-11.32,4.49-23.47,3.7-35.52c-3.52-45.54-36.94-89.23-79.62-102.56c-21.64-6.97-45.32-7.36-67.94-2.35
		c-11.39,2.36-22.32,6.53-32.98,11.32c-10.62,4.89-20.52,11.25-29.92,18.15c-15.99,12.45-29.71,27.04-40.17,44.62
		c-10.45,17.4-18.39,36.67-22.82,56.94c-4.62,20.21-6.37,41.32-5.14,62.33c0.41,10.51,1.96,20.98,3.75,31.41
		c2.16,10.37,4.55,20.62,8.02,30.67c3.04,9.57,7.7,19.62,12.85,29.66c5.25,10,11.2,19.92,16.86,29.36
		c9.17,15.79,27.58,40.28,39.31,54.38c4.95,6.14,10.29,12.49,15.98,17.76c13.21,12.02,21.38,19.72,23.92,24.94
		c2.54,5.18-0.39,7.75-8.89,8.13c-3.76,0.13-3.65,4.76-11.54,0.1c-0.3-0.21-0.96-0.58-1.27-0.78
		c-25.05-13.36-42.46-36.62-59.72-59.29c-21.36-27.91-39.29-58.91-51.35-92.45c-12.15-33.59-17.8-69.67-15.9-105.6
		c1.89-35.84,11.48-71.89,30.17-103.37c9.23-15.7,20.98-30.35,34.58-42.7c13.56-12.4,28.89-22.8,45.38-30.87
		c10.04-5.11,20.75-8.85,31.58-12.16c10.97-2.8,22.13-5.13,33.54-5.88c22.7-1.7,46.13,0.87,67.73,9.57
		c21.84,8.63,40.97,22.78,56.07,40.11c14.95,17.5,26.15,38.07,32.58,60.43c3.21,12.28,5.78,25.01,5.59,38.14
		c0.34,6.53-0.7,13.13-1.56,19.66c-0.38,3.31-1.53,6.48-2.33,9.72c-0.93,3.23-1.67,6.47-3.13,9.52l0.17-0.45
		c-4.37,13.23-11.37,26.07-20.78,36.91c-9.45,10.79-21.51,20.23-36.37,25.45c-14.05,4.86-30.51,5.28-44.83,0.19
		c-14.61-4.84-26.32-14.18-35.54-24.39c-9.02-10.38-16.1-21.75-21.39-33.68c-2.76-5.93-4.96-12.09-6.98-18.19
		c-1.7-6.03-3.59-11.99-4.83-18.12c-2.89-12.16-4.68-24.52-5.54-36.85c-1-12.34-0.82-24.64,0.04-36.8
		c1.72-24.32,6.99-47.78,14.4-69.79C226.06,343.56,227.16,338.7,229.09,333.67z"/>
	<path class="st7" d="M583.57,39.36c-9.99-0.51-45.27-2.5-67.88-3.17c-52.43-1.66-104.78-3.17-157.05-7.57
		c-8.15-0.65-22.04-1-21.59-11.31C337.52,6.59,347,0.47,361.27,1.17c34.57,1.7,69.29,5.11,103.78,4.34
		C515.49,4.36,565.73,7.82,616,9.69c22.6,0.81,45.17,1.99,67.74,3.26c5.7,0.33,11.13,0.55,17.23,1.01c6.05,0.5,12.5,1.2,19.28,2.99
		c3.37,0.89,6.85,2.07,10.26,3.65c3.63,1.64,7.05,3.73,10.16,6.25c6.17,5.04,11.94,11.83,14.36,21.71
		c0.87,3.64,1.09,7.54,0.62,11.35c-0.58,4.67-2.27,8.99-4.37,12.58c-2.1,3.6-4.56,6.53-7.03,9c-4.94,4.9-9.96,8.32-14.57,11.28
		l-25.75,16.26c-17.05,10.73-34.19,21.4-51.56,31.55c-31.59,18.48-64.43,34.71-96.42,52.43c-7.54,4.15-15.52,11.07-23.74,15.72
		c-6.79,3.84-18.08,10.37-25.18,13.51c-3.08,1.37-6.29,2.69-8.96,4.69c-12.08,9.13-17.39,7.91-19.01-4.8
		c-0.34-2.82-3.19-5.09-0.97-8.45c0.1-0.13,0.26-0.44,0.36-0.57c5.86-11.74,17.3-14.64,27.03-20.56
		c47.76-29.04,95.88-57.46,143.84-86.12l44.25-26.23l11.02-6.6c3.6-2.2,7.52-4.52,10.7-6.57c3.22-2.09,6.08-4.17,8.06-6.18
		c2.03-2,2.94-3.76,2.99-4.54c0.06-0.22-0.02-0.37-0.05-0.55c-0.28-0.52-0.54-0.73-1.5-1.94c-0.88-1.07-2.28-2.55-3.81-4.17
		l0.04,0.05c-1.14-0.73-2.29-1.27-3.62-1.73c-1.47-0.52-3.09-0.96-4.8-1.36c-3.47-0.72-7.42-1.19-11.78-1.61
		c-4.09-0.4-8.7-0.6-13.49-0.87c-4.74-0.26-9.44-0.47-14.18-0.74c-9.49-0.43-19.03-0.87-28.47-1.29
		c-18.93-0.86-37.68-1.8-55.62-3.04C587.58,39.07,585.62,39.47,583.57,39.36z"/>
</g>
</svg>
