<svg width="32" height="32" viewBox="0 0 32 32" fill="none" xmlns="http://www.w3.org/2000/svg">
<path d="M16 5.66797C16.5248 5.66801 17.0433 5.78097 17.5208 5.9987L28.9492 11.2031C29.3581 11.38 29.7064 11.6706 29.9557 12.0404C30.2109 12.4189 30.3494 12.8638 30.3542 13.3203C30.3589 13.7767 30.2302 14.2244 29.9831 14.6081C29.7375 14.9892 29.3853 15.2893 28.9714 15.474L28.9727 15.4753L17.5195 20.6706L17.5208 20.6719C17.0434 20.8896 16.5247 21.0026 16 21.0026C15.475 21.0026 14.9556 20.8898 14.4779 20.6719L3.0651 15.4661C2.64993 15.2842 2.29623 14.9862 2.04818 14.6068C1.80003 14.2272 1.66797 13.7829 1.66797 13.3294C1.66804 12.8762 1.80022 12.4328 2.04818 12.0534C2.29373 11.6778 2.64231 11.3804 3.05208 11.1979L14.4779 5.9987C14.9556 5.7808 15.475 5.66797 16 5.66797ZM3.66797 13.3294C3.66797 13.3942 3.68727 13.4575 3.72266 13.5117C3.7405 13.539 3.76179 13.5638 3.78646 13.5846L3.86719 13.6354L3.88151 13.6406L15.3086 18.8516C15.5257 18.9505 15.7615 19.0026 16 19.0026C16.2386 19.0026 16.4743 18.9506 16.6914 18.8516L28.1471 13.6536L28.1562 13.6497C28.2159 13.6234 28.2668 13.5795 28.3021 13.5247C28.3372 13.47 28.3561 13.4062 28.3555 13.3411C28.3548 13.2761 28.3344 13.2128 28.2982 13.1589C28.2617 13.1048 28.2099 13.0615 28.1497 13.0365C28.1398 13.0323 28.1296 13.0279 28.1198 13.0234L16.6914 7.81901C16.4744 7.72007 16.2385 7.66801 16 7.66797C15.7616 7.66797 15.5255 7.71886 15.3086 7.81771L15.3073 7.81901L3.88021 13.0182L3.86719 13.0247C3.80815 13.0507 3.75801 13.0932 3.72266 13.1471C3.68727 13.2013 3.66804 13.2648 3.66797 13.3294Z" fill="#525252"/>
<path d="M28.3331 21.3351V13.3351C28.3331 12.7828 28.7808 12.3351 29.3331 12.3351C29.8853 12.3351 30.3331 12.7828 30.3331 13.3351V21.3351C30.3331 21.8874 29.8853 22.3351 29.3331 22.3351C28.7808 22.3351 28.3331 21.8874 28.3331 21.3351Z" fill="#525252"/>
<path d="M6.99973 21.3351V16.6684C6.99973 16.1162 7.44745 15.6684 7.99973 15.6684C8.55202 15.6684 8.99973 16.1162 8.99973 16.6684V21.3351C8.99973 21.8254 9.41385 22.5805 10.7901 23.2687C12.1197 23.9335 13.9932 24.3351 15.9997 24.3351C18.0062 24.3351 19.8798 23.9335 21.2094 23.2687C22.5856 22.5805 22.9997 21.8254 22.9997 21.3351V16.6684C22.9997 16.1162 23.4474 15.6684 23.9997 15.6684C24.552 15.6684 24.9997 16.1162 24.9997 16.6684V21.3351C24.9997 22.9665 23.728 24.2457 22.1039 25.0578C20.4329 25.8933 18.2367 26.3351 15.9997 26.3351C13.7628 26.3351 11.5666 25.8933 9.89557 25.0578C8.27143 24.2457 6.99973 22.9665 6.99973 21.3351Z" fill="#525252"/>
</svg>
