<svg width="26" height="27" viewBox="0 0 26 27" fill="none" xmlns="http://www.w3.org/2000/svg">
<path d="M13.1958 0.00651042C13.4428 0.0295777 13.6837 0.101271 13.9054 0.216146C14.1271 0.331049 14.3235 0.487212 14.4848 0.675781L14.6346 0.875L14.6463 0.893229L19.5825 8.81641L19.5786 8.81771C19.763 9.09766 19.8746 9.41881 19.8963 9.75391C19.919 10.1058 19.8454 10.4579 19.6827 10.7708C19.52 11.0837 19.2742 11.3464 18.9731 11.5299C18.6721 11.7133 18.3268 11.8112 17.9744 11.8125H8.06684V11.8099C7.72914 11.8188 7.39458 11.7416 7.09679 11.5807C6.78323 11.4113 6.52175 11.1586 6.34289 10.8503C6.16412 10.5419 6.07388 10.1896 6.08247 9.83333L6.10721 9.56901C6.14935 9.3106 6.24537 9.06336 6.38716 8.84115L11.3533 0.946615L11.3546 0.947917C11.5149 0.677289 11.737 0.448521 12.0056 0.283854L12.2257 0.167969C12.4523 0.0664587 12.6974 0.00896201 12.9471 0L13.1958 0.00651042ZM8.01476 9.87891L8.02648 9.8724L8.01997 9.86979L8.01476 9.87891ZM8.02648 9.8724L8.01476 9.87891L8.01997 9.86979L8.02648 9.8724ZM8.13716 9.8125H17.8468L13.0161 2.05859L8.13716 9.8125Z" fill="#525252"/>
<path d="M9.33333 17.4789C9.33333 17.2948 9.1841 17.1456 9 17.1456H2.33333C2.14924 17.1456 2 17.2948 2 17.4789V24.1456C2 24.3297 2.14924 24.4789 2.33333 24.4789H9C9.1841 24.4789 9.33333 24.3297 9.33333 24.1456V17.4789ZM11.3333 24.1456C11.3333 25.4342 10.2887 26.4789 9 26.4789H2.33333C1.04467 26.4789 0 25.4342 0 24.1456V17.4789C0 16.1902 1.04467 15.1456 2.33333 15.1456H9C10.2887 15.1456 11.3333 16.1902 11.3333 17.4789V24.1456Z" fill="#525252"/>
<path d="M24 20.8122C24 18.7872 22.3584 17.1456 20.3333 17.1456C18.3083 17.1456 16.6667 18.7872 16.6667 20.8122C16.6667 22.8373 18.3083 24.4789 20.3333 24.4789C22.3584 24.4789 24 22.8373 24 20.8122ZM26 20.8122C26 23.9419 23.4629 26.4789 20.3333 26.4789C17.2037 26.4789 14.6667 23.9419 14.6667 20.8122C14.6667 17.6826 17.2037 15.1456 20.3333 15.1456C23.4629 15.1456 26 17.6826 26 20.8122Z" fill="#525252"/>
</svg>
