<svg width="32" height="32" viewBox="0 0 32 32" fill="none" xmlns="http://www.w3.org/2000/svg">
<path d="M11 25.3346C11 23.6778 9.65685 22.3346 8 22.3346C6.34315 22.3346 5 23.6778 5 25.3346C5 26.9915 6.34315 28.3346 8 28.3346C9.65685 28.3346 11 26.9915 11 25.3346ZM13 25.3346C13 28.0961 10.7614 30.3346 8 30.3346C5.23858 30.3346 3 28.0961 3 25.3346C3 22.5732 5.23858 20.3346 8 20.3346C10.7614 20.3346 13 22.5732 13 25.3346Z" fill="#525252"/>
<path d="M27 20.668C27 19.6955 26.6134 18.7632 25.9258 18.0755C25.2381 17.3879 24.3058 17.0013 23.3333 17.0013H8.66667C7.16377 17.0013 5.72286 16.4039 4.66016 15.3411C3.59745 14.2784 3 12.8375 3 11.3346C3 9.83174 3.59745 8.39083 4.66016 7.32812C5.72286 6.26542 7.16377 5.66797 8.66667 5.66797H20C20.5523 5.66797 21 6.11568 21 6.66797C21 7.22025 20.5523 7.66797 20 7.66797H8.66667C7.69421 7.66797 6.76185 8.05455 6.07422 8.74219C5.38659 9.42982 5 10.3622 5 11.3346C5 12.3071 5.38659 13.2394 6.07422 13.9271C6.76185 14.6147 7.69421 15.0013 8.66667 15.0013H23.3333C24.8362 15.0013 26.2771 15.5988 27.3398 16.6615C28.4025 17.7242 29 19.1651 29 20.668C29 22.1709 28.4025 23.6118 27.3398 24.6745C26.2771 25.7372 24.8362 26.3346 23.3333 26.3346H12C11.4477 26.3346 11 25.8869 11 25.3346C11 24.7824 11.4477 24.3346 12 24.3346H23.3333C24.3058 24.3346 25.2381 23.948 25.9258 23.2604C26.6134 22.5728 27 21.6404 27 20.668Z" fill="#525252"/>
<path d="M27 6.66797C27 5.01111 25.6569 3.66797 24 3.66797C22.3431 3.66797 21 5.01111 21 6.66797C21 8.32482 22.3431 9.66797 24 9.66797C25.6569 9.66797 27 8.32482 27 6.66797ZM29 6.66797C29 9.42939 26.7614 11.668 24 11.668C21.2386 11.668 19 9.42939 19 6.66797C19 3.90654 21.2386 1.66797 24 1.66797C26.7614 1.66797 29 3.90654 29 6.66797Z" fill="#525252"/>
</svg>
