<svg width="24" height="24" viewBox="0 0 24 24" fill="none" xmlns="http://www.w3.org/2000/svg">
<path d="M2.25 7V5C2.25 4.27065 2.53994 3.57139 3.05566 3.05566C3.57139 2.53994 4.27065 2.25 5 2.25H7C7.41421 2.25 7.75 2.58579 7.75 3C7.75 3.41421 7.41421 3.75 7 3.75H5C4.66848 3.75 4.35063 3.88179 4.11621 4.11621C3.88179 4.35063 3.75 4.66848 3.75 5V7C3.75 7.41421 3.41421 7.75 3 7.75C2.58579 7.75 2.25 7.41421 2.25 7Z" fill="url(#paint0_linear_132_4722)"/>
<path d="M20.25 7V5C20.25 4.66848 20.1182 4.35063 19.8838 4.11621C19.6494 3.88179 19.3315 3.75 19 3.75H17C16.5858 3.75 16.25 3.41421 16.25 3C16.25 2.58579 16.5858 2.25 17 2.25H19C19.7293 2.25 20.4286 2.53994 20.9443 3.05566C21.4601 3.57139 21.75 4.27065 21.75 5V7C21.75 7.41421 21.4142 7.75 21 7.75C20.5858 7.75 20.25 7.41421 20.25 7Z" fill="url(#paint1_linear_132_4722)"/>
<path d="M20.25 19V17C20.25 16.5858 20.5858 16.25 21 16.25C21.4142 16.25 21.75 16.5858 21.75 17V19C21.75 19.7293 21.4601 20.4286 20.9443 20.9443C20.4286 21.4601 19.7293 21.75 19 21.75H17C16.5858 21.75 16.25 21.4142 16.25 21C16.25 20.5858 16.5858 20.25 17 20.25H19C19.3315 20.25 19.6494 20.1182 19.8838 19.8838C20.1182 19.6494 20.25 19.3315 20.25 19Z" fill="url(#paint2_linear_132_4722)"/>
<path d="M2.25 19V17C2.25 16.5858 2.58579 16.25 3 16.25C3.41421 16.25 3.75 16.5858 3.75 17V19C3.75 19.3315 3.88179 19.6494 4.11621 19.8838C4.35063 20.1182 4.66848 20.25 5 20.25H7C7.41421 20.25 7.75 20.5858 7.75 21C7.75 21.4142 7.41421 21.75 7 21.75H5C4.27065 21.75 3.57139 21.4601 3.05566 20.9443C2.53994 20.4286 2.25 19.7293 2.25 19Z" fill="url(#paint3_linear_132_4722)"/>
<path d="M12.25 12C12.25 11.8619 12.1381 11.75 12 11.75C11.8619 11.75 11.75 11.8619 11.75 12C11.75 12.1381 11.8619 12.25 12 12.25C12.1381 12.25 12.25 12.1381 12.25 12ZM13.75 12C13.75 12.9665 12.9665 13.75 12 13.75C11.0335 13.75 10.25 12.9665 10.25 12C10.25 11.0335 11.0335 10.25 12 10.25C12.9665 10.25 13.75 11.0335 13.75 12Z" fill="url(#paint4_linear_132_4722)"/>
<path d="M12 6.25388C13.639 6.25388 15.2411 6.74206 16.6015 7.65622C17.8769 8.51323 18.8861 9.70809 19.5176 11.1045L19.6387 11.3867L19.6523 11.4228C19.7828 11.7965 19.7828 12.2035 19.6523 12.5771C19.6481 12.5891 19.6435 12.6015 19.6387 12.6133C19.0194 14.1307 17.9619 15.4296 16.6015 16.3437C15.2411 17.2579 13.639 17.7461 12 17.7461C10.3609 17.7461 8.75884 17.2579 7.39842 16.3437C6.03807 15.4296 4.9806 14.1307 4.36131 12.6133C4.35651 12.6015 4.35183 12.5891 4.34764 12.5771C4.21713 12.2035 4.21712 11.7965 4.34764 11.4228L4.36131 11.3867C4.9806 9.86921 6.03806 8.57038 7.39842 7.65622C8.75884 6.74207 10.3609 6.25388 12 6.25388ZM12 7.75388C10.659 7.75388 9.3484 8.15341 8.23533 8.90134C7.13137 9.64316 6.27105 10.6943 5.76268 11.9228C5.74656 11.9724 5.74604 12.0255 5.7617 12.0752C6.26996 13.3046 7.13075 14.3564 8.23533 15.0986C9.3484 15.8465 10.659 16.2461 12 16.2461C13.341 16.2461 14.6516 15.8465 15.7646 15.0986C16.8691 14.3564 17.729 13.3044 18.2373 12.0752C18.2531 12.0253 18.2526 11.9726 18.2363 11.9228C17.7279 10.6944 16.8685 9.64309 15.7646 8.90134C14.6516 8.15341 13.341 7.75388 12 7.75388Z" fill="url(#paint5_linear_132_4722)"/>
<defs>
<linearGradient id="paint0_linear_132_4722" x1="2.25" y1="12" x2="21.75" y2="12" gradientUnits="userSpaceOnUse">
<stop stop-color="#1EB4A6"/>
<stop offset="1" stop-color="#64E5D9"/>
</linearGradient>
<linearGradient id="paint1_linear_132_4722" x1="2.25" y1="12" x2="21.75" y2="12" gradientUnits="userSpaceOnUse">
<stop stop-color="#1EB4A6"/>
<stop offset="1" stop-color="#64E5D9"/>
</linearGradient>
<linearGradient id="paint2_linear_132_4722" x1="2.25" y1="12" x2="21.75" y2="12" gradientUnits="userSpaceOnUse">
<stop stop-color="#1EB4A6"/>
<stop offset="1" stop-color="#64E5D9"/>
</linearGradient>
<linearGradient id="paint3_linear_132_4722" x1="2.25" y1="12" x2="21.75" y2="12" gradientUnits="userSpaceOnUse">
<stop stop-color="#1EB4A6"/>
<stop offset="1" stop-color="#64E5D9"/>
</linearGradient>
<linearGradient id="paint4_linear_132_4722" x1="2.25" y1="12" x2="21.75" y2="12" gradientUnits="userSpaceOnUse">
<stop stop-color="#1EB4A6"/>
<stop offset="1" stop-color="#64E5D9"/>
</linearGradient>
<linearGradient id="paint5_linear_132_4722" x1="2.25" y1="12" x2="21.75" y2="12" gradientUnits="userSpaceOnUse">
<stop stop-color="#1EB4A6"/>
<stop offset="1" stop-color="#64E5D9"/>
</linearGradient>
</defs>
</svg>
