<svg width="18" height="22" viewBox="0 0 18 22" fill="none" xmlns="http://www.w3.org/2000/svg">
<path d="M16 4.75C15.9999 4.68386 15.9735 4.62002 15.9268 4.57324C15.8799 4.5265 15.8162 4.5 15.75 4.5C13.5102 4.5 10.8551 3.19977 9.02246 1.59961C8.94645 1.53477 8.84992 1.5 8.75 1.5C8.65008 1.5 8.55355 1.53575 8.47754 1.60059C6.65555 3.18999 3.99026 4.5 1.75 4.5C1.6838 4.5 1.62011 4.5265 1.57324 4.57324C1.52646 4.62002 1.50012 4.68386 1.5 4.75V11.75C1.5 14.0518 2.29673 15.7398 3.55762 17.0312C4.6789 18.1796 6.19352 19.0401 7.91504 19.707L8.66504 19.9814L8.68164 19.9873C8.73474 20.0071 8.79288 20.0079 8.84668 19.9902C10.8715 19.2841 12.6635 18.3463 13.9434 17.0332C15.2035 15.7402 16 14.0518 16 11.75V4.75ZM17.5 11.75C17.5 14.4481 16.5464 16.5106 15.0166 18.0801C13.5073 19.6285 11.4704 20.6645 9.33691 21.4082L9.33105 21.4111C8.95532 21.5385 8.5476 21.5331 8.1748 21.3984C6.03579 20.6597 3.99527 19.6265 2.48438 18.0791C0.953067 16.5106 0 14.4479 0 11.75V4.75C0.000119043 4.28603 0.184613 3.84078 0.512695 3.5127C0.840862 3.18465 1.28598 3 1.75 3C3.50716 3 5.83825 1.91391 7.49609 0.46582L7.50293 0.459961C7.85056 0.163038 8.29282 0 8.75 0C9.1501 0 9.5385 0.12525 9.8623 0.355469L9.99707 0.459961L10.0039 0.46582C11.671 1.92331 13.9922 3 15.75 3C16.214 3 16.6591 3.18465 16.9873 3.5127C17.3154 3.84078 17.4999 4.28603 17.5 4.75V11.75Z" fill="url(#paint0_linear_1800_11558)"/>
<defs>
<linearGradient id="paint0_linear_1800_11558" x1="0" y1="10.7516" x2="17.5" y2="10.7516" gradientUnits="userSpaceOnUse">
<stop stop-color="#1EB4A6"/>
<stop offset="1" stop-color="#64E5D9"/>
</linearGradient>
</defs>
</svg>
