<svg width="16" height="16" viewBox="0 0 16 16" fill="none" xmlns="http://www.w3.org/2000/svg">
<path d="M9.15043 2.29482L10.3236 4.66062C10.4836 4.98994 10.9102 5.30583 11.2702 5.36632L13.3966 5.72253C14.7565 5.95105 15.0765 6.94576 14.0966 7.92703L12.4434 9.59383C12.1634 9.8761 12.0102 10.4205 12.0968 10.8104L12.5701 12.8737C12.9434 14.5069 12.0834 15.1387 10.6503 14.2851L8.65716 13.0955C8.29723 12.8804 7.70396 12.8804 7.3373 13.0955L5.34421 14.2851C3.9177 15.1387 3.05113 14.5002 3.42442 12.8737L3.8977 10.8104C3.98436 10.4205 3.83104 9.8761 3.55107 9.59383L1.89792 7.92703C0.924697 6.94576 1.238 5.95105 2.59784 5.72253L4.72428 5.36632C5.07757 5.30583 5.50419 4.98994 5.66417 4.66062L6.83736 2.29482C7.4773 1.0111 8.51716 1.0111 9.15043 2.29482Z" fill="#FFB611"/>
</svg>
