<svg width="16" height="16" viewBox="0 0 16 16" fill="none" xmlns="http://www.w3.org/2000/svg">
<path d="M9.33464 0.832031C9.61078 0.832031 9.83464 1.05589 9.83464 1.33203C9.83464 1.60817 9.61078 1.83203 9.33464 1.83203H6.66797C6.39183 1.83203 6.16797 1.60817 6.16797 1.33203C6.16797 1.05589 6.39183 0.832031 6.66797 0.832031H9.33464Z" fill="#525252"/>
<path d="M9.64779 6.97852C9.84305 6.78325 10.1596 6.78325 10.3548 6.97852C10.5501 7.17378 10.5501 7.49028 10.3548 7.68555L8.35482 9.68555C8.15956 9.88081 7.84305 9.88081 7.64779 9.68555C7.45252 9.49028 7.45252 9.17378 7.64779 8.97851L9.64779 6.97852Z" fill="#525252"/>
<path d="M12.8346 9.33203C12.8346 6.66265 10.6707 4.4987 8.0013 4.4987C5.33193 4.4987 3.16797 6.66265 3.16797 9.33203C3.16797 12.0014 5.33193 14.1654 8.0013 14.1654C10.6707 14.1654 12.8346 12.0014 12.8346 9.33203ZM13.8346 9.33203C13.8346 12.5537 11.223 15.1654 8.0013 15.1654C4.77964 15.1654 2.16797 12.5537 2.16797 9.33203C2.16797 6.11037 4.77964 3.4987 8.0013 3.4987C11.223 3.4987 13.8346 6.11037 13.8346 9.33203Z" fill="#525252"/>
</svg>
