<?xml version="1.0" encoding="utf-8"?>
<!-- Generator: Adobe Adobe Illustrator 29.2.0, SVG Export Plug-In . SVG Version: 6.00 Build 0)  -->
<svg version="1.1" id="Layer_1" xmlns="http://www.w3.org/2000/svg" xmlns:xlink="http://www.w3.org/1999/xlink" x="0px" y="0px"
	 width="812.52px" height="247.35px" viewBox="0 0 812.52 247.35" style="enable-background:new 0 0 812.52 247.35;"
	 xml:space="preserve">
<style type="text/css">
	.st0{fill:#06284C;}
	.st1{fill:#D9D9D9;}
	.st2{fill:#D2D3D4;}
	.st3{fill:#D3D4D5;}
	.st4{fill:#3BD8CB;}
	.st5{fill:#3DDFD0;}
	.st6{fill:#646464;}
	.st7{fill:#DDDDDD;}
</style>
<g>
	<path class="st6" d="M45.28,244.35H1V54.21c0,0,0-36.03,32.31-48.04C62.63-4.5,81.78,16.85,81.78,16.85l145.41,175.46
		c7.18,5.34,10.17,0,10.17-5.34V6.17h44.88v188.81c0,16.01-11.97,36.03-29.32,44.03c-17.35,7.34-36.5,7.34-58.64-14.01L57.85,60.21
		c-3.59-4-13.16-4.67-13.16,3.34v180.8H45.28z M310.97,6.17h44.88v170.79c0,18.01,13.76,18.01,26.93,18.01h198.07
		c8.38,0,17.35-10.67,17.35-22.02c0-11.34-9.57-22.68-18.55-22.68H450.99c-22.14,0.67-68.22-22.02-68.22-70.05
		c0-58.71,43.68-72.05,63.43-74.06h364.42v50.04h-90.96v188.14h-44.28V56.21h-223.2c-21.54-2-36.5,38.7-1.79,44.7h137.03
		c20.35,0,54.45,20.02,55.05,69.39c0,50.04-26.33,74.06-55.05,74.06H385.17c-33.51,0-45.48-8.67-57.45-20.68
		c-10.77-12.01-12.57-18.68-16.16-44.03V6.17H310.97z"/>
</g>
</svg>
