<?xml version="1.0" encoding="utf-8"?>
<!-- Generator: Adobe Adobe Illustrator 29.2.0, SVG Export Plug-In . SVG Version: 6.00 Build 0)  -->
<svg version="1.1" id="Layer_1" xmlns="http://www.w3.org/2000/svg" xmlns:xlink="http://www.w3.org/1999/xlink" x="0px" y="0px"
	 width="812.52px" height="247.35px" viewBox="0 0 812.52 247.35" style="enable-background:new 0 0 812.52 247.35;"
	 xml:space="preserve">
<style type="text/css">
	.st0{fill:#06284C;}
	.st1{fill:#D9D9D9;}
	.st2{fill:#D2D3D4;}
	.st3{fill:#D3D4D5;}
	.st4{fill:#3BD8CB;}
	.st5{fill:#3DDFD0;}
	.st6{fill:#646464;}
	.st7{fill:#DDDDDD;}
</style>
<g>
	<path class="st6" d="M300.53,101.06v46.4l-45.58,73.01v-46.4L286,124.33l-0.04-0.07l-31.02-49.64v-46.4L300.53,101.06z
		 M463.82,124.1c0,35.82-27.59,65.51-66.48,65.51c-38.89,0-66.14-29.52-66.14-65.17c0-35.66,27.58-65.34,66.48-65.34
		C436.57,59.1,463.82,88.27,463.82,124.1L463.82,124.1z M444.45,124.61c0-26.95-19.53-49.3-47.11-49.3
		c-27.58,0-46.77,22.01-46.77,48.96c0,26.95,19.53,49.3,47.11,49.3C425.26,173.56,444.45,151.56,444.45,124.61z M568.33,77.18
		h-75.39v38.38h67.5v16.55h-67.52v39.57h76.42v16.55h-94.92V60.45h93.89V77.18z M689.64,167.76
		c-13.54,13.48-28.27,22.52-51.57,22.52c-37.18,0-64.59-29-64.59-65.85c0-36.51,27.24-66.19,65.11-66.19
		c23.47,0,37.35,8.02,50.2,20.13l-12.16,13.64c-11.14-10.23-22.45-16.71-38.21-16.71c-26.55,0-46.08,21.66-46.08,48.96
		c0,27.29,19.7,49.3,46.08,49.3c16.79,0,27.24-6.48,39.07-17.57L689.64,167.76z M810.26,124.27c0,35.99-27.76,63.97-68.19,63.97
		h-46.26V60.45h46.26C782.33,60.45,810.26,88.26,810.26,124.27L810.26,124.27z M790.9,124.61c0-27.29-19.37-47.26-48.83-47.26
		h-27.76v94h27.76C771.53,171.35,790.9,151.9,790.9,124.61z M166.89,80.78c-0.64-0.24-0.27-0.57,0.2-0.89
		c-0.25-0.07-0.47-0.21-0.65-0.4c0.02,0.09,0.02,0.18-0.06,0.24c-0.86,0.68,0.85,1.53-0.35,1.19
		C165.69,80.94,166.2,81.45,166.89,80.78L166.89,80.78z M99.55,153.94c-0.05,0-0.05-0.04-0.07-0.06
		C99.48,153.92,99.5,153.94,99.55,153.94z M111.89,164C112.06,164.17,112.06,164.35,111.89,164L111.89,164z M138.31,65.44
		c0.1-0.02,0.21-0.03,0.31-0.04c-0.08-0.08-0.16-0.16-0.23-0.26C138.38,65.25,138.35,65.35,138.31,65.44z M31.87,66.43
		c0-0.02,0-0.02-0.02-0.02C31.77,66.58,31.72,66.73,31.87,66.43z M170.48,177.99C170.31,177.82,170.48,177.82,170.48,177.99
		L170.48,177.99z M107,151.44C106.87,151.26,106.88,151.3,107,151.44L107,151.44z M167.89,74.78c-0.06,0.34-0.12,0.72-0.2,0.87
		c0.12-0.18,0.26-0.36,0.38-0.51C167.99,75.03,167.93,74.91,167.89,74.78z M172.73,70.17l-0.05-0.1
		C172.63,70.12,172.66,70.17,172.73,70.17z M19.54,73.08C18.85,73.42,19.37,74.1,19.54,73.08L19.54,73.08z M172.37,96.28l-0.17,0.17
		C172.37,96.45,172.37,96.28,172.37,96.28z M20.57,72.91c0,0.18-0.17,0.35,0,0.52C20.57,73.26,20.74,73.09,20.57,72.91z
		 M175.26,135.71c0.02,0.05,0.03,0.09,0.03,0.15C175.29,135.76,175.27,135.73,175.26,135.71z M184.03,144.05
		C183.85,144.22,184.03,144.22,184.03,144.05L184.03,144.05z M171,180.56c0.18,0.68,0.52,0.34,0.52-0.17
		C171.18,180.22,171.52,181.07,171,180.56z M181.97,162.13l-0.44,0.97C182.14,162.68,182.29,161.14,181.97,162.13z M171.86,181.07
		c-0.09,0-0.19,0.02-0.27,0.05c-0.14,0.24-0.24,0.43-0.24,0.29c-0.01,0.02,0,0.04-0.01,0.05c0,0.05,0,0.06,0.02,0.12
		C171.35,181.41,171.86,181.41,171.86,181.07z M10.97,89.12v0.17C10.97,89.29,11.14,89.12,10.97,89.12z M184.19,104.47
		C184.19,104.65,184.37,104.65,184.19,104.47L184.19,104.47z M183.85,102.6c0,0,0.17-0.17,0-0.17V102.6z M183.85,104.65
		C183.85,104.47,184.02,104.65,183.85,104.65L183.85,104.65z M183.51,102.76c-1.37,1.03-1.03,2.39-1.89,3.07
		c1.04,0.68,1.72,0.34,2.23,0.51c-1.2,0.85,0.17,0.68,0.17-0.17c0.35,0.17-0.34,1.7,0.35,0.68c0.17,0-0.17,0.35,0,0.52
		c1.02-1.2-0.17-0.69-0.17-1.37c0.85-0.51,0.17-0.34,0-0.17c0-0.34,0.51-0.85,0-0.85c-0.18,0-0.52,0.17-0.86-0.17
		c-0.17,0,0.17-1.03-0.17-0.35C182.31,104.65,184.37,102.43,183.51,102.76L183.51,102.76z M184.02,108.74v-0.17
		C183.85,108.57,183.85,108.57,184.02,108.74z M183.85,108.74C184.02,108.74,184.02,108.91,183.85,108.74L183.85,108.74z
		 M181.79,108.4c-0.69,0.85-0.69,1.54,0.34,1.02C181.79,108.91,181.96,108.91,181.79,108.4z M181.81,86.2
		C181.84,86.17,181.9,86.12,181.81,86.2L181.81,86.2z M176.31,77.7c-0.79,0-0.27-0.31-0.13-0.97c0.16,0.18,0.37,0.32,0.61,0.41
		c0.23,0.08,0.48,0.11,0.73,0.07c-0.35-0.74-0.88-1.39-1.54-1.88c-0.04,0.07-0.05,0.14-0.07,0.21c-0.57-0.38-1.89-0.05-0.96,0.48
		c-0.68-0.52-0.51-0.35-0.17,0.34c-0.34-0.69-0.51-0.34-0.51,0.17c0.51,0.68,0.17,0.51-0.35,0.51c0.69,0.85-0.34,2.22,0.17,1.02
		c-2.05-1.53,1.55-4.09-1.02-3.75c-0.85,0.85-2.74,2.55-0.52,3.59c-1.37-0.35-1.37,0.33-0.17,1.02c0.17-0.34,0.35-0.17,0.35,0.34
		c0.68,0.17,0.68,0.34,1.88,1.02c-1.2-1.87,2.05,1.88,1.2-0.34c-0.34-0.85,0.85,0.17,0.51,1.03c0.17-0.18,1.03,1.19,0.34,1.19
		c0.17,0.51,1.03-0.34,0.69,0.34c0.51,0.68,1.2,1.54,0.34,2.9c-1.2,0.17-0.17,1.37-1.03,1.37c-2.22-1.02-2.39,1.37-0.17,0.85
		c1.03,0.17,0.52,1.2,1.54,2.39c1.54,1.71,2.57,2.05,1.03-0.34c-0.68-1.02,0.34,0,0.34,0c0.52,0.34,0.52,0.34,1.03,1.2
		c0.21-0.23,0.33-0.53,0.34-0.84c0.02,0.15,0.15,0.27,0-0.02c0.07-0.54-0.05-1.09-0.34-1.55c-0.34-0.17-1.2-2.9-0.69-1.54
		c0.52-0.34,0-1.36,0.69-0.17c0.17,0.34,0.51-0.34,0.17,0.34c1.03-0.51,0.17,0,0.17,0.34c0.17,0.35,0.85,1.71,0.69,0.35
		c-0.18-0.85,0.51,0.51,0.34-0.35c0.51,0.52-0.17-0.34,0.34,0c0-0.17-0.51-0.51-0.17-0.34c-0.17-0.51,0.51,0.34,0.17-0.34
		c0.34,0.17-0.17-0.85-0.34-0.34l-0.07-0.18l0.06,0.01c0-0.1-0.06-0.07-0.06-0.04c-0.12-0.27-0.26-0.39-0.4-0.67
		c0.05-0.05-0.05-0.15-0.05-0.15v0.01c-0.08-0.23-0.14-0.47-0.17-0.71c-0.34,0.51-0.34,0.51-0.17,0c-0.51,0.85,0-0.35-0.85-0.52
		c0.51,0,0.34-0.17,0-0.17c-0.34-0.51-0.17-0.17-0.52-0.68c1.2,0.51-0.34-0.85,1.03-0.17c0.34,0-1.37-1.2-0.17-0.68
		c0.34,0,0-0.35,0-0.52c-0.34-0.34-0.34,0.52-0.85,0.35c0.85-0.35,0.34-0.52,0-0.35c1.37-0.51,0.34-0.85,0-1.02
		c-0.35,0.34-0.52,1.02-0.35,0.17c-0.17,0-0.51,0.34-0.17-0.17c1.06-0.26-0.24-0.22-0.3-0.43c0.05,0.02,0.05-0.02,0.03-0.09
		c0.09-0.06,0.18-0.11,0.27-0.16c0.34,0.52,0.34-0.34,0.17-0.34c-0.34-0.68-0.34,0-0.51,0.34c0.17-0.85-0.52,0.18,0-0.68
		c-0.85,0.34,0.34-0.34-0.34-0.34c-0.35,0.68-0.35,0.34-0.18,0c-0.68,0,0.18-0.17,0.18-0.34c-1.37-0.17,0.51-0.17-0.69-1.02
		c-1.2-1.2-0.34,0.85-0.68,0.17c-0.18-0.17-0.18-0.35-0.35-0.52c0,0.35,0.35,0.69,0,0.35C176.65,78.72,176.31,76.67,176.31,77.7z
		 M180.42,91.17c0.17,0,0.17,0.17,0.17-0.17L180.42,91.17z M180.42,92.02c0-0.17-0.17-0.34-0.17-0.34
		C180.25,91.85,180.25,91.85,180.42,92.02z M180.08,92.02c0,0.17,0.17,0.17,0.17,0.34C180.59,92.19,180.25,91.85,180.08,92.02z
		 M178.71,92.71C178.19,93.56,179.22,92.88,178.71,92.71L178.71,92.71z M178.02,94.24v-0.17C178.02,94.24,177.85,94.24,178.02,94.24
		z M177.84,90.06c0-0.06-0.04-0.09-0.16-0.09C177.72,89.97,177.79,90.01,177.84,90.06c0.02,0.04,0.01,0.04,0.01,0.09
		C178.11,90.4,177.99,90.2,177.84,90.06L177.84,90.06z M175.97,89.63c0,0.17,0.17,0.34,0.34,0.17
		C176.14,89.8,176.14,89.63,175.97,89.63z M174.77,88.27c0.17,0.17,0.17,0.51,0.34,0.51C175.28,88.44,174.94,88.27,174.77,88.27z
		 M174.77,87.76C174.6,87.93,174.94,87.93,174.77,87.76L174.77,87.76z M175.46,81.79c-0.35,0.51,0.85-0.17,0.34-0.34
		C175.8,81.79,175.28,81.45,175.46,81.79z M176.31,82.98c-0.34,0.51-0.68,1.19,0.17,1.19C177,84.17,177.17,82.64,176.31,82.98z
		 M176.31,81.79C176.31,81.45,176.65,81.79,176.31,81.79L176.31,81.79z M175.97,81.11h-0.17C175.63,81.28,175.97,81.28,175.97,81.11
		z M175.46,82.3C175.28,82.47,175.63,82.47,175.46,82.3L175.46,82.3z M175.28,82.64C175.46,82.47,175.46,82.64,175.28,82.64
		L175.28,82.64z M174.94,80.59c0,0,0.17,0.51,0.17,0.34C175.63,80.94,175.11,80.59,174.94,80.59z M177,83.66
		c0,0.17,0.51,0.68,0.51,0.17C177.34,83.66,177.17,83.32,177,83.66z M177.17,83.15c0,0,0-0.52-0.17-0.52
		C177,82.81,177,82.98,177.17,83.15z M174.26,88.44c-0.18,0,0.17,0.34,0.17,0.51C175.11,88.95,174.43,88.27,174.26,88.44z
		 M173.91,80.25c0,0.18,0.17,0.18,0.17,0.18C174.08,80.25,173.91,80.25,173.91,80.25z M170.14,74.28c1.03,0.68,1.2,0.17,2.05-0.68
		c0-0.51-1.2-1.03-1.89-1.03c0,0.69-0.85,0.52-0.68,1.88C168.94,75.99,170.83,75.31,170.14,74.28z M169.45,71.21
		C169.45,71.38,169.8,71.21,169.45,71.21L169.45,71.21z M171.17,71.89c0.34-0.51,0.34-1.54-0.52-1.54
		C170.31,70.7,169.97,71.21,171.17,71.89z M170.48,70.01C170.31,70.35,170.65,70.35,170.48,70.01L170.48,70.01z M171.17,70.01
		C171,70.7,171.51,69.84,171.17,70.01L171.17,70.01z M170.31,71.55l0.17,0.17C170.48,71.72,170.48,71.55,170.31,71.55z
		 M170.14,70.18c0,0,0,0.34,0.17,0.17C170.48,70.35,170.31,70.01,170.14,70.18z M172.36,73.41
		C172.27,73.33,172.32,73.37,172.36,73.41L172.36,73.41z M176.65,72.92c0.17,0,0.35,0.17,0.17-0.18
		C177.17,72.57,176.65,72.75,176.65,72.92z M176.31,73.94c0,0.34,0.17,0.17,0.34,0.34C176.65,74.11,176.65,73.77,176.31,73.94z
		 M173.23,68.82c0,0,0,0.18,0.07,0.36c-0.02,0.02,0,0.05,0.1,0.15C174.08,69.33,173.4,68.31,173.23,68.82z M173.23,69.67
		c0.17,0.17,0,0.51,0.34,0.68C173.4,70.18,173.57,69.67,173.23,69.67z M172.71,70.01l-0.04,0.05c-0.19-0.3-0.43-0.46-0.84-0.29
		c-0.02-0.03-0.04-0.06-0.07-0.09c0.36-0.53,0.18-1.38-0.6-1.38c-0.26,0.51,0.15,0.92,0.6,1.38c-0.04,0.05-0.05,0.12-0.09,0.15
		c0.05-0.03,0.1-0.05,0.15-0.07c0.12,0.13,0.26,0.27,0.37,0.41c0,1.54-0.69,1.71,0.16,2.39c0.69,0.52,0.52-0.34,0.69,0.69
		c0.51,0,2.05,1.36,1.89,0.17c0.51,2.05,2.22,0.17,0.68-0.85c-1.2-0.35-1.72-0.35-2.4-0.86c-0.17-0.17-0.17-0.85-0.85-0.85
		c0.34-0.35,0-0.52,0.68,0c-0.12-0.24-0.23-0.5-0.33-0.7c0.05,0.01,0.11,0.02,0.16,0.01C172.89,70.18,172.89,70.01,172.71,70.01z
		 M172.71,68.31c0-0.35-1.2-1.37-1.2-0.52C171.86,67.97,172.2,68.48,172.71,68.31z M172.54,67.29v-0.34
		C172.54,67.12,172.37,67.29,172.54,67.29z M169.44,65.29c-0.03,0.07,0.02,0.09,0.06,0.05c0.26,0.22,0.99,0.53,0.99,0.75
		c0.34,1.36,0.76,1.06,0.89,0.46c0.14,0.52,0.46,0.97,0.99,0.57c0,0-0.65-2.07-0.99-1.4c-0.02-0.05-0.02-0.1-0.03-0.14
		c-0.35-0.51-1.04-1.7-1.54-1.7c-0.35,0.34,1.02,1.7-0.17,1.19C169.39,65.12,169.35,65.19,169.44,65.29z M169.97,67.97
		C169.8,67.63,169.8,67.97,169.97,67.97L169.97,67.97z M169.45,66.09c0.18,0.17,0.18,0.34,0.35,0.34
		C170.31,66.6,169.45,65.24,169.45,66.09z M169.63,67.63h-0.52C168.77,67.8,169.45,67.8,169.63,67.63z M168.6,68.82
		c-1.19,0.51,0.69,0.34,1.04,0.85c-0.52,0-1.04-0.17-0.69,0.34c-0.51,0.34,0.85,0.85,1.2,0c0.51-0.68,0.51-1.87-0.69-2.05
		c-0.51,0.18,0.35,0.69-0.17,1.2c-0.17-0.51-0.51-1.54-0.51-0.68C168.6,68.48,168.77,69.16,168.6,68.82z M169.44,71.23
		C169.35,71.31,169.41,71.26,169.44,71.23L169.44,71.23z M168.03,68.45c-0.17,0.05-0.37,0.21-0.12,0.21
		c0.17,0.17,0.85-0.17,0.34-0.17c0.19-0.07,0.09-0.16-0.05-0.21c0.05,0,0.09-0.01,0.13-0.03c0.04-0.02,0.07-0.06,0.09-0.1
		c0.17-0.18-0.52-0.52-0.69-0.18c0,0.09,0.1,0.19,0.24,0.26C167.81,68.21,167.72,68.26,168.03,68.45z M168.43,66.6
		c0,0-0.18-0.17-0.18,0H168.43z M168.6,66.43c-0.17-0.17-0.17-1.54-0.34-0.85C168.26,65.92,167.91,66.43,168.6,66.43z M167.91,67.29
		c0,0.17,0.17,0.51,0.34,0.51C168.43,67.46,168.08,66.78,167.91,67.29z M166.21,63.54c0.68,0.17,0.68,0.34,1.02,0.68
		C168.94,64.56,166.71,62.68,166.21,63.54L166.21,63.54z M167.06,68.99c-0.17,0.17-0.17,0.51,0.34,0.34
		C167.57,69.16,167.4,68.65,167.06,68.99z M165.69,64.22c-0.69,1.02,1.54,1.7,1.02,0.68C167.91,64.56,166.37,64.05,165.69,64.22z
		 M165.17,63.71c0.18,0,0,0.34,0.18,0.51C165.86,64.39,165.52,63.19,165.17,63.71z M164.49,65.24c0,0,0.34,0.52,0.51,0.34
		C164.83,65.24,164.66,65.24,164.49,65.24z M161.23,65.07c0.03,0.17,0.08,0.33,0.17,0.48c-0.35,0.1-0.65,0.27-0.35,0.38
		c0,0.49,1.55-0.57,0.94-0.52c0.26-0.29,0.57-0.7,0.94-0.85c-0.09,0.27-0.14,0.55-0.17,0.84c-0.4,0.03-0.23,0.39,0.34,0.53
		c-0.85-0.17-1.37,0-0.34,0.51c-2.91-0.17,0.34,1.19,0.17,1.02c0.17,0.34,1.37,0,1.2,0.51c-2.57-0.68-1.54,1.37,0.17,0.52
		c0.85-0.17,1.71,0.85,2.22,0.17c1.37-1.03,0.17-1.54-0.51-1.03c0.17-0.34,0.69-2.39-0.34-1.7c-0.69,0.68,0.34,2.04-1.2,1.36
		c0-0.67-0.19-1.62-1.11-1.99c0.34-0.36,0.74-0.84,0.94-0.91c0.34-0.85-0.34-0.34-1.37-0.68c-0.34,0.68-2.4,0.51-2.4,1.02
		C160.38,64.9,161.06,65.58,161.23,65.07z M166.2,76.33c-0.17,0,0,0.17,0,0.17C166.2,76.84,166.37,76.33,166.2,76.33z M164.31,70.7
		c0,0.17,0.18,0,0.18,0.17C164.66,70.7,164.48,70.7,164.31,70.7z M155.06,70.01c0.69,0.17,0.35,1.03,0.52,1.71
		c0.85-0.34,0.68-0.34,1.2,0c0.68,0,0.68-1.37,1.36-0.85c0.35-1.03,3.09-0.35,2.91-1.37c0-1.36-2.05-2.39-3.42-2.39
		C157.29,68.65,156.26,69.33,155.06,70.01z M153.87,72.91C153.69,72.91,153.87,72.74,153.87,72.91L153.87,72.91z M145.81,70.87
		c0,0.17,0.17,0.17,0.34,0.17C146.15,71.04,145.98,70.87,145.81,70.87z M125.25,77.01c-0.17-0.17,0.17-0.68,0-0.85
		c0.17,0.17,0,0.68,0.34,0.34c0.51-0.17,0-0.68-0.34-0.34C124.74,76.5,124.74,76.67,125.25,77.01z M121.14,74.28
		c0.17,0.51,1.2,0.17,0.85,1.2C123.71,75.48,121.65,73.43,121.14,74.28z M121.14,80.08c0,1.03,1.71,0.69,0.85,0
		C121.65,80.25,121.48,80.25,121.14,80.08z M121.14,88.44C121.14,88.27,121.31,88.44,121.14,88.44L121.14,88.44z M120.63,88.44
		C120.63,88.61,120.8,88.61,120.63,88.44C120.45,88.61,120.63,88.61,120.63,88.44z M121.31,152.58c0-0.17-0.85-1.36-0.68-0.85
		C120.63,152.07,120.97,152.41,121.31,152.58z M120.63,153.09c0,0.35,0.34,0.52,0.68,0.52C121.31,153.27,120.8,153.09,120.63,153.09
		z M120.11,152.75c0.52-0.17-0.51-0.34-0.68-0.51C119.26,152.58,119.77,152.58,120.11,152.75z M119.6,153.95
		c-0.17,0.34,0.34,0.34,0.34,0.17C119.77,154.12,119.77,153.95,119.6,153.95z M119.94,152.07
		C119.77,152.24,119.94,152.24,119.94,152.07L119.94,152.07z M120.11,89.12C120.11,88.95,120.28,89.12,120.11,89.12L120.11,89.12z
		 M119.94,151.73c0-0.51-0.51-0.68-0.85-0.68C119.43,151.22,119.6,151.73,119.94,151.73z M118.92,88.77c0.86,0,1.54-0.68,0.35-0.51
		C119.09,87.92,118.23,89.11,118.92,88.77z M118.75,151.72C118.92,151.72,118.92,151.89,118.75,151.72L118.75,151.72z
		 M118.23,151.55c0.17,0,0.17,0,0.17,0.17C118.92,152.06,118.23,150.87,118.23,151.55z M118.23,151.38c0-0.17-0.17-0.17-0.17,0
		H118.23z M118.06,88.94C118.23,88.94,118.23,89.11,118.06,88.94L118.06,88.94z M117.72,89.11c0,0.17,0.17,0.17,0.34,0.17
		C117.89,89.11,117.72,88.94,117.72,89.11z M117.72,150.19c-0.18,0.16,0.51,0.67,0.68,0.51
		C118.23,150.53,118.06,150.53,117.72,150.19z M117.89,151.04c-0.17,0.17,0,0.17,0,0.17C118.06,151.21,117.89,151.04,117.89,151.04z
		 M98.35,64.56c-0.17,0.34,0.69,0.68,0.85,0.34C99.38,64.39,98.69,64.22,98.35,64.56z M94.58,66.09c0,0.17,0.17,0.17,0.17,0.17
		C94.76,65.92,94.58,65.92,94.58,66.09z M93.9,64.21C93.9,64.39,94.07,64.39,93.9,64.21L93.9,64.21z M92.87,64.39
		C92.7,64.22,92.87,64.22,92.87,64.39L92.87,64.39z M79.16,58.93c0,1.53,3.6,1.02,2.23,0C80.53,58.93,79.84,59.27,79.16,58.93z
		 M80.53,63.71c-0.34-0.52-1.2-1.2-1.89-0.69C77.96,64.73,79.16,63.71,80.53,63.71z M77.79,56.88c0,0,0.34-0.34,0.17-0.34
		C77.96,56.71,77.62,56.71,77.79,56.88z M74.88,61.66c1.71,1.02,1.37-0.68,2.91-0.85c0.18-0.07,0.24-0.12,0.23-0.16
		c0.03-0.02,0.09,0,0.12-0.02c0.68-1.19-0.18-1.53-1.38-1.53c-0.36,0.12-0.05,0.94,0.5,1.35c-0.27-0.05-0.55-0.16-0.67-0.33
		c0-0.68-1.02-1.53-1.02-1.02c-0.35,0.34,0.51,1.19-0.86,0.51C73,58.24,73.68,61.66,74.88,61.66z M77.96,62.34
		c-0.68,0-0.17,0.68,0.17,0.85C78.3,62.85,78.13,62.68,77.96,62.34z M75.22,63.54c0,0.34,0.52,0.34,0.85,0.34
		C75.74,63.71,75.39,63.71,75.22,63.54z M72.82,60.63c0.17,0.35,0.51,0.85,0.85,1.03C73.68,60.98,73.17,60.81,72.82,60.63z
		 M69.74,65.75c0,0.17,0,0.17,0.18,0.17C70.08,65.75,69.91,65.58,69.74,65.75z M68.03,67.63c0,0.17,0.34,0.34,0.34,0.17
		S68.19,67.46,68.03,67.63L68.03,67.63z M57.57,63.02c0,0.17,0.17,0.17,0.17,0.35C57.91,63.37,57.91,62.85,57.57,63.02z M56.2,62
		c0.51,0,1.03-0.51,0.34-0.34c0,0.09-0.1,0.09-0.2,0.12c0.09-0.19,0.1-0.36-0.14-0.12C56.2,61.83,56.03,61.83,56.2,62z M52.95,60.46
		c0.34,0.17-0.34,0.69,0.34,1.2c-0.68,0.51,0.17,2.55,0.69,1.02C57.06,61.66,53.47,60.13,52.95,60.46z M53.12,66.6
		c0.51,0.18,0.51-0.67,0.17-0.16C53.12,66.26,52.61,66.6,53.12,66.6z M52.95,65.75c0,0.35,0.17-0.34,0-0.17
		C52.78,65.75,52.61,65.92,52.95,65.75z M53.46,65.07c-0.17,0-0.17,0-0.17,0.17C53.46,65.24,53.46,65.24,53.46,65.07z M53.46,65.41
		c-0.17,0,0,0,0,0.17C53.63,65.58,53.46,65.41,53.46,65.41z M52.95,65.58c0.17-0.51,0-0.51-0.34-0.17
		C52.09,65.92,52.61,65.75,52.95,65.58z M52.26,65.75c0,0.17-0.17,0-0.17,0.17C52.26,65.92,52.61,65.92,52.26,65.75z M49.01,61.49
		c2.91,1.7,4.8-0.17,1.71-1.7c0.17,0.33,0.17,0.85-0.17,0.85C50.89,58.59,48.84,60.64,49.01,61.49z M50.21,64.9
		C50.04,64.9,50.21,65.07,50.21,64.9L50.21,64.9z M49.69,70.52v0.18C49.86,70.87,50.04,70.52,49.69,70.52z M49.69,71.21
		C49.86,71.21,49.86,71.38,49.69,71.21L49.69,71.21z M49.69,69.84c-0.35,0,0.17,0.17,0.17,0.17C50.04,69.84,49.86,69.5,49.69,69.84z
		 M49.35,70.69C49.35,70.87,49.52,70.87,49.35,70.69L49.35,70.69z M49.01,65.41v0.35C49.35,65.75,49.35,65.24,49.01,65.41z
		 M49.18,70.18C48.84,70.35,49.18,70.35,49.18,70.18L49.18,70.18z M49.15,70.87c0.01-0.02,0.15-0.05,0.03-0.17
		C49.02,70.7,48.87,70.85,49.15,70.87z M49.35,59.95c1.04-0.34-1.37-2.39-1.54-1.36C46.6,59.95,47.98,61.66,49.35,59.95z
		 M48.49,60.8c-0.17,0.18-0.52,0-0.69,0.18c-0.51,0.17,1.37,0.34,0.35,0.68C48.49,62,49.35,60.8,48.49,60.8z M48.49,71.72
		c0.17,0,0.34,0,0.34-0.17C48.66,71.55,48.49,71.55,48.49,71.72z M48.15,71.72c0.17,0,0.17,0,0.17-0.17
		C48.15,71.55,48.15,71.72,48.15,71.72z M47.12,69.84c0,0.51,0.35-0.68-0.16-0.34C47.12,69.67,46.6,69.84,47.12,69.84z M47.63,74.28
		c0-0.34-0.51-1.19-0.51-0.34C46.78,74.11,47.46,74.45,47.63,74.28z M46.95,68.82c0,0,0.34,0,0.34-0.17
		C47.12,68.65,46.95,68.48,46.95,68.82z M46.6,68.99c0,0,0.18,0.17,0.35,0C46.78,68.99,46.6,68.65,46.6,68.99z M47.12,74.79
		c0.34-0.34-0.52-0.34-0.34,0C46.26,75.3,46.95,74.96,47.12,74.79z M46.09,59.27c0.17,0.17,0.69-0.34,0.34-0.34
		C46.43,58.93,46.09,58.93,46.09,59.27z M46.26,71.21c0,0.17,0,0.17,0.17,0.17C46.6,71.21,46.43,71.04,46.26,71.21z M45.58,73.94
		c0,0,0.34,0.17,0.34,0C45.75,73.94,45.58,73.77,45.58,73.94z M45.06,73.76c0.18-0.17,0.52-0.51,0.18-0.34
		C45.06,73.59,45.06,73.59,45.06,73.76z M44.89,74.61c0.35,0.17,0.17,0,0.17-0.34C44.89,74.1,44.72,74.44,44.89,74.61z M42.84,74.78
		c0.68,0.17,0.51-1.19-0.17-0.68C42.5,74.44,42.67,74.96,42.84,74.78z M42.84,80.42v0.17C43.01,80.42,43.01,80.24,42.84,80.42z
		 M37.18,70.69l-2.05,2.73c0.17,0.17,0.85,0.34,0.34,0.34c-0.52,0.51,0.51,0.17-0.17,0.68c0.68,0.17,0,0.17-0.35,1.03
		c-0.51,0.51,1.04-0.35,0.69,0c-1.2,0.34,0.17,0.85,0.51,0.34c1.03,0.68,0.34-2.22,1.71-2.73c-0.68-1.02,4.28-3.4,1.89-4.09
		C38.73,69.16,38.38,71.04,37.18,70.69z M38.9,80.76c1.03,0.17-0.17-1.03-0.68-1.03C37.87,80.58,38.73,80.24,38.9,80.76z
		 M38.71,81.18c-0.06-0.05-0.11-0.09-0.16-0.09C38.62,81.1,38.68,81.15,38.71,81.18c0.1,0.09,0.18,0.21,0.18,0.09
		C38.81,81.27,38.76,81.21,38.71,81.18z M38.38,81.1C38.56,80.93,38.56,81.1,38.38,81.1L38.38,81.1z M38.04,82.29
		c0-0.17,0.17,0,0.34-0.17C38.21,81.95,37.87,82.12,38.04,82.29z M37.35,79.74c-1.89-1.54-0.85-4.27-2.22-3.59
		c-1.04,0.34-0.52,1.19-0.52,1.36c0.34,0.17-1.37,1.03,0,1.54c0.52-0.68,1.03,0,0.85,0.68C36.84,79.73,36.5,80.07,37.35,79.74
		L37.35,79.74z M37.01,82.12c0,0,0.17,0.17,0.17,0H37.01z M36.67,82.81c-0.18,0-0.18,0-0.18,0.17
		C36.67,82.98,36.84,82.81,36.67,82.81z M36.33,82.98C36.5,82.98,36.5,83.15,36.33,82.98L36.33,82.98z M35.3,79.73
		c0-0.34-0.35-0.85-0.52-0.34C34.95,79.39,35.13,79.56,35.3,79.73z M34.78,83.15c0-0.17,0.17,0,0.17-0.17
		C34.95,82.98,34.61,82.98,34.78,83.15z M33.08,67.45c0.16,0,0.34-0.34,0-0.34C33.08,67.11,32.9,67.45,33.08,67.45z M33.24,66.6
		C33.24,66.94,33.41,66.77,33.24,66.6L33.24,66.6z M34.1,82.81c0.18-0.52,0.18-0.85-0.68-0.69C33.07,82.81,33.58,83.49,34.1,82.81z
		 M33.41,66.76c0,0.18-0.17,0.18,0,0.18C33.58,66.94,33.58,66.76,33.41,66.76z M33.58,66.76c0-0.16,0-0.33-0.17-0.16
		C33.41,66.6,33.41,66.76,33.58,66.76z M34.62,66.26c0.16,0.68,0.16,1.02,0.51,0.34C35.47,66.26,34.96,66.26,34.62,66.26z
		 M35.13,67.28c0,0.17,0.17,0.17,0.17,0H35.13z M34.61,66.09C34.44,66.09,34.44,66.26,34.61,66.09
		C34.61,65.92,34.78,65.92,34.61,66.09z M34.61,65.24c0,0,0,0.33-0.17,0.33C34.61,65.75,34.78,65.41,34.61,65.24z M34.27,66.6
		c-0.04,0-0.07,0.01-0.1,0.02c-0.03,0.01-0.06,0.04-0.08,0.06c0.02-0.04,0.02-0.04,0.02-0.09c-0.17,0-0.17,0-0.17,0.17
		c0.06,0,0.09,0,0.12-0.02c-0.09,0.17-0.07,0.41,0.05,0.53C34.61,67.28,34.61,66.6,34.27,66.6z M34.1,65.92
		c-0.17,0-0.17,0.17-0.34,0.17C33.75,66.43,34.61,66.09,34.1,65.92z M33.75,66.95C33.75,67.29,34.1,66.95,33.75,66.95L33.75,66.95z
		 M33.75,66.6c0,0.17-0.18,0.17,0,0.17C33.75,66.78,33.92,66.6,33.75,66.6z M37.35,82.13C37.35,82.3,37.52,82.3,37.35,82.13
		L37.35,82.13z M35.64,67.29c0.34-0.34-0.17-0.51-0.34-0.17C35.47,67.12,35.47,67.29,35.64,67.29z M36.32,71.72
		c-0.17,0-0.17,0-0.34,0.17C35.98,72.06,36.32,71.89,36.32,71.72z M37.18,65.41c0-0.68,0.51-0.85-0.17-1.19
		C36.67,64.73,36.49,65.58,37.18,65.41z M36.33,63.88c0.51-0.17,0-0.17-0.18,0C35.98,63.88,36.15,64.05,36.33,63.88z M35.98,66.09
		c0-0.21,0.1-0.52,0.14-0.77l0.03-0.09c0.09,0,0.04-0.03-0.03-0.09c0-0.12-0.04-0.2-0.14-0.26C35.64,65.24,34.44,66.43,35.98,66.09z
		 M34.95,64.73c0.18,0,0.18-0.17,0-0.17C34.95,64.73,34.78,64.73,34.95,64.73z M34.61,64.39c0.17-0.17,0.34-0.68,0-0.34
		C34.44,64.05,34.44,64.39,34.61,64.39z M34.27,64.73C33.92,65.24,35.3,64.56,34.27,64.73L34.27,64.73z M34.1,64.9
		C33.92,65.24,34.44,64.9,34.1,64.9L34.1,64.9z M33.85,65.8c0,0.02,0.02,0.02,0.04,0.02c0.23,0.05,0.44,0.1,0.57,0.1
		c0.09-0.14-0.04-0.24-0.21-0.33c0.07-0.05,0.1-0.12,0.15-0.17c0.02,0,0.04-0.03,0.05-0.07c0.05-0.09,0.09-0.15,0.09-0.21
		c0.15,0,0.32-0.15-0.07-0.26c-0.07,0.09-0.07,0.14-0.07,0.19c-0.15,0.05-0.22,0.09-0.26,0.13c-0.15-0.03-0.3-0.05-0.38,0.02
		c0.12-0.05,0.24-0.02,0.35,0.05c-0.02,0.07,0,0.15-0.05,0.24c-0.21-0.07-0.43-0.12-0.65-0.12C33.08,65.51,33.42,65.68,33.85,65.8z
		 M33.58,66.09c0.35,0,0.18-0.17-0.17-0.17C32.89,65.92,33.24,66.26,33.58,66.09z M32.89,66.95C32.89,66.78,33.07,66.6,32.89,66.95
		L32.89,66.95z M32.21,67.97c-0.52,0.18,0,0.35,0.34,0.18C32.38,67.97,32.04,67.46,32.21,67.97z M31.86,66.09v-0.34
		C31.86,65.92,31.69,65.92,31.86,66.09z M31.35,67.12c-0.34,0.34-1.03,0.17-0.34,0.51c-0.85,0.69,0,0.52,0.17,0.69
		c0.51-0.35,0-0.85,0.68-0.85c-0.34-0.52,1.04-0.69,0.01-1.03c0.19-0.47,0.07-0.22-0.02-0.01C31.37,66.12,31.85,66.95,31.35,67.12z
		 M31.69,67.63c0,0.17,0,0.34,0.17,0.34C31.86,67.8,32.21,67.63,31.69,67.63z M30.49,67.63c-0.68-1.02,1.72-0.34,0.17-0.85
		C29.3,67.46,30.15,67.97,30.49,67.63z M25.36,70.7c0,0.17,0.68-0.69,0.34-0.35L25.36,70.7z M24.16,73.09
		c-0.05,0.03-0.07,0.05-0.1,0.06c-0.18,0.12-0.15,0.07,0,0c0.09-0.04,0.18-0.06,0.27-0.06C24.67,73.09,24.16,72.91,24.16,73.09z
		 M23.82,71.04C23.99,70.87,23.99,71.04,23.82,71.04L23.82,71.04z M21.76,70.87C21.93,70.7,21.93,70.87,21.76,70.87
		C21.41,70.7,21.76,70.7,21.76,70.87z M21.07,71.55C20.9,72.06,21.24,71.72,21.07,71.55C20.9,71.72,21.07,71.72,21.07,71.55z
		 M21.93,72.06c-1.37,1.37,0.86,1.37,1.72-0.34c0.17-0.85-1.2-0.85-1.2-0.17v-0.51c-0.34-0.17,0,1.36-0.34,0.34
		c-0.35,0.68-0.35-0.51-0.69-0.17C21.41,71.89,20.04,73.09,21.93,72.06z M23.3,73.6C23.47,73.26,23.47,73.6,23.3,73.6
		C23.47,73.94,23.64,73.77,23.3,73.6z M21.93,76.15c0.86-1.02,0.35-0.85,0.18-1.7c-0.06,0.04-0.12,0.09-0.18,0.14
		c0.12-0.27,0.19-0.67-0.17-0.31c-0.34-0.17-0.34,0.85,0,0.51c-0.43,0.63-0.55,1.7,0,1.03C22.27,75.3,21.41,76.67,21.93,76.15
		L21.93,76.15z M21.48,82.62c0.26-0.05,0.24-0.3-0.07-0.16C21.41,82.57,21.46,82.61,21.48,82.62c-0.03,0-0.03,0.01-0.07,0.01
		C21.48,82.64,21.5,82.64,21.48,82.62z M21.07,82.81c0.17-0.17,0.51-0.51,0-0.34C21.07,82.64,20.56,82.63,21.07,82.81z M21.07,82.98
		C20.9,82.98,21.07,83.15,21.07,82.98L21.07,82.98z M21.24,82.81C21.24,83.15,21.59,82.81,21.24,82.81L21.24,82.81z M21.24,73.43
		c0,0.17,0,0.34,0.17,0.17C21.59,73.43,21.41,73.43,21.24,73.43z M22.27,81.96c0.34,0.17,0.34,0.17,0.34-0.17
		C22.44,81.79,22.27,81.79,22.27,81.96z M18.5,73.93c0,0.69,0.51-0.16,0.34,0.18c0,0.85-0.17,0.68,0.17,1.37
		c0.35,0.68,0.69-1.03,0.69-1.03c0,0.68,0.17,0.68,0.34,0c0.17,0.51,0,0.34-0.51,0.85c-0.17,0.35-0.85,0.69-0.52,0.85
		c0.18,0,1.2-0.67,0.86-0.33c-0.68,0.34-1.54,1.36-0.34,1.36c0.17,2.22,0.85-3.24,1.89-3.07c-0.35-0.51-1.04-2.05-1.21-1.54
		c-0.51,0.52,0.17,1.71-0.51,1.37c0-0.17,0.34-1.2-0.17-0.85C19.01,72.91,18.84,73.42,18.5,73.93z M20.21,83.32
		c0,0.17-0.17,0.34,0.17,0.34C20.38,83.49,20.38,83.32,20.21,83.32z M19.87,83.32c-0.17,0,0,0.34,0.17,0.34
		C20.04,83.49,19.87,83.49,19.87,83.32z M19.53,83.66c-0.17,0-0.17,0.17,0,0.17C19.87,83.83,19.7,83.49,19.53,83.66z M19.53,84
		l-0.34,0.34C19.19,84.51,19.7,84.17,19.53,84z M18.84,84.34c-0.17,0.34-0.34,0.51-0.17,0.68C18.84,84.85,19.36,84.51,18.84,84.34z
		 M18.33,75.13c-0.17,0.35,0.17,0.35,0.17,0.69C18.67,75.48,18.16,74.28,18.33,75.13z M18.16,85.2c0,0,0.34-0.35,0.17-0.52
		C18.33,84.85,17.99,85.03,18.16,85.2z M17.64,85.54c0.1,0.12,0.21,0.09,0.26,0.03c-0.23,0.67,0.73-0.07,0.43-0.37
		c0.17-0.18,0.17,0,0,0c-0.17,0.68-0.17,0-0.34,0.17c-0.02,0.03-0.02,0.03-0.02,0.06C17.95,85.35,17.87,85.32,17.64,85.54z
		 M17.3,86.39c0,0,0.17-0.17,0.17-0.34C17.3,86.22,17.3,86.39,17.3,86.39z M16.96,86.73c0-0.17,0.17-0.34,0-0.17V86.73z
		 M16.62,88.95c0,0,0.17-0.17,0-0.34V88.95z M16.27,89.97C16.27,90.14,16.45,89.97,16.27,89.97L16.27,89.97z M15.93,90.32
		c0.17,0,0.17,0,0.17-0.18C16.1,90.14,15.93,90.14,15.93,90.32z M14.91,91.85C14.91,91.68,15.08,91.85,14.91,91.85L14.91,91.85z
		 M14.73,91.68C14.73,91.85,14.91,91.68,14.73,91.68C14.91,91.51,14.91,91.68,14.73,91.68z M14.58,92.35
		C14.61,92.31,14.66,92.26,14.58,92.35L14.58,92.35z M13.54,93.38C13.71,93.22,13.71,93.38,13.54,93.38L13.54,93.38z M9.25,92.71
		c1.37,0,2.57-2.22,3.42-2.56c-0.17-0.69,0.34-1.03,0.34-1.37c-0.51,0.17,0-1.02-0.17-1.2c-0.68,0.85-0.17,0-0.68,0
		c0,1.03-1.2,0.35-1.03,1.2c0,0.68-0.17-0.34-0.17-0.51c-0.52,0-0.34,1.36-0.69,0.51c0.17-0.68-1.02,2.56-0.68,0.68
		c0.51-0.68,0-1.36-0.17-0.68c0.17,0.34-0.52,0.51-0.52,1.19c-0.34,0.35,0.35-0.17,0.52-0.17c-0.52,0.85,0.17,0.34-0.34,0.69
		c-1.55,0.34,0.68,1.02-0.69,1.53C8.05,93.22,9.09,91.85,9.25,92.71z M11.13,102.94c0.17-0.85-0.51-0.34-0.85-1.2
		c0.68,0-0.86-2.22-0.86-1.88c1.37-2.21-0.34-0.51,0.17-2.21c-0.85-0.17-0.69,1.87-1.03,1.02c-0.34,0.68,0.52,0.17,0,0.85
		c0.52-0.34-0.17,1.37,0,1.03c0.17-0.51,0.17-0.34,0.34-0.69c0,0.85-0.51,1.71,0.35,1.03c0,0.17-0.35,0.85,0.17,0.68
		c-0.52,1.03-0.52,1.37-1.03,2.22c0.17,0.17,0.69,0.34,1.03,0c-0.34,0.51-0.85,0.68-1.2,1.37c-0.69,0.68,1.71-0.69,2.57-0.85
		C11.31,103.79,10.45,103.79,11.13,102.94z M9.93,104.64C9.93,104.82,10.11,104.82,9.93,104.64L9.93,104.64z M8.39,98.5
		C8.39,98.67,8.56,98.5,8.39,98.5L8.39,98.5z M8.56,98.33c0.17-0.17,0.17-0.68,0-0.17C8.39,97.99,8.39,98.5,8.56,98.33z M8.39,99.7
		C8.22,100.21,8.9,99.53,8.39,99.7L8.39,99.7z M8.56,100.21c0,0,0.17-0.17,0-0.17C8.56,100.04,8.39,100.21,8.56,100.21z
		 M8.39,100.21c0,0.17,0,0.17,0.17,0.17C8.39,100.21,8.56,100.21,8.39,100.21z M8.9,101.4c0,0.17-0.17,0.34-0.17,0.34
		C8.9,101.74,8.9,101.57,8.9,101.4z M8.9,102.43C8.73,102.43,8.9,102.6,8.9,102.43L8.9,102.43z M8.73,100.38c-0.17,0,0,0.17,0,0.34
		V100.38z M9.59,97.31C9.59,97.14,9.76,97.14,9.59,97.31L9.59,97.31z M8.22,98.67C8.22,98.84,8.39,98.84,8.22,98.67L8.22,98.67z
		 M8.22,99.18v-0.17C8.22,99.01,8.05,99.18,8.22,99.18z M6.51,103.96c0,0.51,0.51-0.34,1.2-0.34c0.34-1.19,1.19-2.9,0.17-2.73
		c-0.17,0.17-0.69,1.02-1.03,1.2c0,0.16,0,0.51,0.17,0.68c-0.51,0.51,0,0.34-0.17,0.51C6.51,103.45,6.34,103.96,6.51,103.96z
		 M13.7,143.71v0.18C13.7,143.88,13.88,143.71,13.7,143.71z M14.91,141.66c0.17-0.17-0.18-0.69-0.18-0.17
		C14.56,141.5,14.73,141.66,14.91,141.66z M39.95,156.85c0.24-1.69,0.16-3.14-0.37-3.41c-0.35,1.19-0.86,1.53-1.37,2.39
		c-0.52,0-1.54,0-2.06,1.36c1.03,2.05-1.71,4.27,0.69,5.8c1.54-0.3,2.71-3.45,3.1-6.05C39.97,156.86,40.02,156.85,39.95,156.85z
		 M38.89,154.29C38.89,154.12,39.06,154.12,38.89,154.29L38.89,154.29z M44.55,148.32l-0.17-0.18
		C44.2,148.32,44.37,148.48,44.55,148.32z M61.68,138.25c-0.17,0.69-0.51,1.54,0.17,2.73C63.9,140.81,62.54,138.25,61.68,138.25z
		 M62.02,137.91h-0.17C61.85,138.08,62.19,138.08,62.02,137.91z M62.36,138.08c0-0.17-0.17-0.17-0.17,0
		C62.36,138.25,62.71,138.25,62.36,138.08z M67.51,128.53v0.17C67.51,128.7,67.68,128.53,67.51,128.53z M69.22,127.85
		c0,0.17,0,0.34,0.17,0.17C69.56,128.02,69.39,127.68,69.22,127.85z M11.65,115.9v0.34C11.82,116.24,11.82,115.9,11.65,115.9z
		 M12.5,115.39c-0.16,0-0.34,0-0.34,0.17C12.34,115.73,12.34,115.56,12.5,115.39L12.5,115.39z M12.85,115.22
		C12.51,115.22,12.85,115.39,12.85,115.22L12.85,115.22z M15.08,113.86c0.68,0.52,0.51-2.05,0.34-1.02
		C14.91,112.83,15.25,113.51,15.08,113.86z M15.93,112.66c0.17-0.17,0,0-0.17,0H15.93z M18.5,117.61c0-0.34,0.51-1.54,0-1.2
		C16.61,116.41,17.13,116.93,18.5,117.61z M18.16,118.29c0,0.17,0.17,0.34,0.17,0C18.16,118.29,18.16,118.12,18.16,118.29z
		 M19.36,112.49h0.17C19.7,112.32,19.53,112.32,19.36,112.49z M19.53,112.15h-0.17C19.19,112.15,19.53,112.32,19.53,112.15z
		 M21.07,115.05C21.07,115.39,21.59,115.56,21.07,115.05L21.07,115.05z M21.59,116.07C21.76,115.9,21.76,116.07,21.59,116.07
		L21.59,116.07z M21.59,116.24c-0.17,0.34-0.17,0.17,0,0.34c-0.17,0.17,0.17,0.35,0.17,0.17c0-0.17,0-0.17-0.17-0.17
		C21.93,116.75,21.76,116.24,21.59,116.24z M23.82,114.2C23.99,114.2,23.99,114.37,23.82,114.2L23.82,114.2z M23.83,114.18
		C23.86,114.15,23.92,114.1,23.83,114.18L23.83,114.18z M23.82,115.73c0.17,0,0.17,0.17,0.17,0.17
		C23.99,115.73,23.99,115.73,23.82,115.73z M24.5,114.71h-0.34C24.16,115.05,24.33,114.88,24.5,114.71z M24.33,117.1
		C24.5,117.1,24.5,117.27,24.33,117.1L24.33,117.1z M23.64,118.29c-1.04,0.51,2.05,0.68,1.02,0.17
		C24.33,118.29,23.99,118.63,23.64,118.29z M24.52,117.25C24.55,117.22,24.6,117.17,24.52,117.25L24.52,117.25z M25.36,116.75
		c0-0.17-0.34-0.17-0.34,0C25.19,116.75,25.19,116.93,25.36,116.75z M25.19,117.44C25.02,117.44,25.02,117.61,25.19,117.44
		L25.19,117.44z M25.02,115.39C24.67,115.39,24.67,115.9,25.02,115.39C24.67,116.07,25.36,115.39,25.02,115.39z M24.67,116.07
		C24.67,116.75,25.19,115.73,24.67,116.07L24.67,116.07z M23.99,117.44C23.82,117.44,23.82,117.61,23.99,117.44L23.99,117.44z
		 M24.16,116.75c0-0.17-0.17-0.17-0.17-0.17L24.16,116.75z M22.96,115.9c0.51,0,0.69,0.68,1.03,0.85
		C23.82,116.41,23.47,115.39,22.96,115.9z M22.96,117.61c0,0.18,0,0.35,0.17,0.35C23.13,117.78,23.13,117.78,22.96,117.61
		L22.96,117.61z M26.21,117.61c-0.17,0-0.17,0.18-0.34,0.18C25.87,118.29,26.21,117.78,26.21,117.61L26.21,117.61z M18.67,111.47
		C18.5,111.3,18.5,111.47,18.67,111.47L18.67,111.47z M18.16,110.96C17.99,110.45,18.33,110.79,18.16,110.96c0,0,0,0.17,0.17,0.17
		L18.16,110.96z M14.66,98.64c0.33-0.37,1.27-0.94,0.41-0.64c-0.17,0.51-1.03,0.51-0.52,0.85c0-0.03,0.02-0.09,0.07-0.13
		C14.68,98.73,14.69,98.67,14.66,98.64z M15.42,100.21v0.34C15.42,100.38,15.59,100.21,15.42,100.21z M15.59,100.55
		c0.17,0.17,0.51,0,0.51-0.17C15.76,100.55,15.59,100.21,15.59,100.55z M15.59,97.99C15.59,98.16,15.76,97.99,15.59,97.99
		L15.59,97.99z M15.76,100.04c0.34,0.51,0.69-0.69,0.34-0.69C15.93,99.87,15.59,99.36,15.76,100.04z M19.19,97.99
		c-0.18,0.68,0.68-1.03,0-0.69C19.01,97.65,19.01,97.82,19.19,97.99z M19.7,97.14C19.53,97.31,19.87,97.14,19.7,97.14L19.7,97.14z
		 M20.04,94.92c0-0.17,0.17-0.51-0.17-0.51C19.87,94.75,19.7,94.75,20.04,94.92z M21.59,95.95c-0.34-0.17-0.34,0-0.51,0.17
		C21.24,95.95,21.41,96.29,21.59,95.95z M20.9,96.46v0.68C21.24,96.63,21.93,96.12,20.9,96.46z M50.88,76.84v0.34
		C50.88,77.69,51.06,77.18,50.88,76.84z M50.37,71.55c0,0,0-0.17-0.17-0.17C50.2,71.38,50.2,71.55,50.37,71.55z M79.5,67.12
		c0,0-0.17,0.17-0.34,0.17C79.16,67.63,79.84,67.29,79.5,67.12z M113.08,153.61c0-0.85-2.05-1.54-2.22-3.59
		c-1.2-1.02-6-4.1-7.37-2.9c-2.74,2.22-1.02-1.2-3.42-1.37c-1.71,0.69,0,1.54,1.2,1.37c-0.51,0.85-1.71-0.34-0.85,1.02
		c0.22,0.75,0.58,0.05,0.72-0.32c1.37,1.18,3.74,1.54,3.74,3.22c-0.35,0.35,2.4,2.05,3.08,1.03c-0.23-0.07-0.45-0.19-0.63-0.36
		C110.48,150.4,108.66,152.24,113.08,153.61z M108.26,151.75C108.18,151.83,108.23,151.78,108.26,151.75L108.26,151.75z
		 M106.4,153.44C106.4,153.61,106.57,153.61,106.4,153.44L106.4,153.44z M104.63,151.5c0.17-0.17,0.22-0.37-0.12-0.46
		c-0.34,0-0.51,0.51-0.68,0.68c0.22,0.07,0.49-0.02,0.7-0.15c0,0.03-0.02,0.09-0.02,0.15h0.18
		C104.69,151.61,104.65,151.54,104.63,151.5z M104,158.38c0.17,0.17,0.17-0.17,0.34-0.17C104.34,158.04,103.83,158.04,104,158.38z
		 M102.29,154.12c0-0.17,0.17-0.17,0-0.34C102.46,153.95,102.12,153.95,102.29,154.12z M101.6,149.85c0,0-0.17,0-0.17,0.17
		C101.6,150.36,101.77,150.02,101.6,149.85z M101.6,150.19C101.43,150.36,101.6,150.36,101.6,150.19L101.6,150.19z M101.26,150.36
		c-0.34,0.17,0.17,0.34,0.17,0C101.26,150.19,101.09,150.02,101.26,150.36z M101.43,150.19c0-0.17,0-0.17-0.17-0.17L101.43,150.19z
		 M101.43,149.85c0.35,0,0.35-0.17,0-0.34C101.26,149.68,101.43,149.68,101.43,149.85z M100.4,149.85c0.17,0,0.17-0.34,0.17-0.34
		C100.4,149.51,100.4,149.68,100.4,149.85z M98,154.29c-0.69-0.51,0,0.51,0.68,0C98.86,153.78,97.49,153.95,98,154.29z M98,151.39
		c0.17-0.17,0-0.17-0.17-0.17C97.83,151.39,98,151.39,98,151.39z M98.86,148.32c0.18-0.52-0.85-0.85-1.19-0.69
		C95.6,147.8,98,147.97,98.86,148.32z M97.15,148.14c-0.35,0-0.35,0-0.35,0.18C96.8,148.48,97.14,148.32,97.15,148.14L97.15,148.14z
		 M96.11,151.22C96.11,151.05,96.29,151.05,96.11,151.22L96.11,151.22z M95.6,147.8c-0.68,0,0,0.69,0.52,0.52
		C96.63,148.14,95.95,147.63,95.6,147.8z M93.21,157.02C93.04,157.19,93.21,157.19,93.21,157.02L93.21,157.02z M93.21,157.53v-0.17
		C93.04,157.36,93.04,157.53,93.21,157.53z M95.26,152.07c1.03-0.51-2.05,0-0.51-0.17C91.5,152.92,93.21,153.44,95.26,152.07z
		 M92.52,153.27c0,0.17-0.17,0.17-0.34,0.34C92.35,153.78,92.86,153.44,92.52,153.27z M92.69,153.09
		C92.52,153.09,92.52,153.27,92.69,153.09L92.69,153.09z M92.69,151.56c-0.34,0.85-1.71-0.51-2.22,0.34
		C90.81,152.41,93.72,152.07,92.69,151.56z M91.49,153.44C91.49,153.61,91.67,153.44,91.49,153.44L91.49,153.44z M87.89,151.73
		c0,0.17-0.17,0.17-0.17,0.17C88.06,152.41,88.58,151.39,87.89,151.73z M88.06,148.48c0,0,0.17-0.51,0-0.51
		C88.06,148.14,87.89,148.31,88.06,148.48z M88.24,148.32c0,0,0.17-0.18,0-0.18C88.24,148.14,88.06,148.32,88.24,148.32z
		 M87.89,148.14c0.69-1.02,0.69-3.24,1.89-3.24c0.51-0.34-0.86-1.36-0.86-2.22c2.05-2.05,1.37-0.34-0.34-2.55
		c-1.38,1.87-3.94,3.4-5.83,4.77c0.35,0.25,0.46,0.77,0.6,1.28c-0.09-0.06-0.14-0.08-0.26-0.08c0,0.15,0.13,0.17,0.27,0.17h-0.1
		c0,0.22,0.09,0.27,0.17,0.22c0.18,0.67,0.46,1.23,1.37,1.14c0.34,0.34,0.34,0.51,1.37,0.17C86.69,147.97,87.03,148.83,87.89,148.14
		z M87.04,151.56c-0.86-0.17,0.16,0.68,0.51,0.17C87.72,151.73,87.21,151.39,87.04,151.56L87.04,151.56z M87.38,150.53h-0.17
		C87.21,150.71,87.38,150.71,87.38,150.53z M85.49,150.71c0.18,0.16,0.69,0.16,0.85,0C86.18,150.71,85.49,150.36,85.49,150.71z
		 M83.27,145.93c0-0.17-0.17-0.17-0.17-0.17C82.93,145.93,83.1,145.93,83.27,145.93z M82.75,146.78
		C82.58,146.78,82.93,146.95,82.75,146.78L82.75,146.78z M83.1,131.08c0.51,0.69,1.88-1.36,0.85-1.36
		C83.1,129.38,82.07,130.74,83.1,131.08z M84.12,129.04c0,0-0.34-0.16-0.34,0H84.12z M88.58,126.99c0-0.17-0.18-0.17-0.18,0H88.58
		L88.58,126.99z M88.58,139.27c-0.18,0,0,0.35,0,0.35C88.58,139.45,88.75,139.27,88.58,139.27z M88.75,139.79
		C88.75,139.96,88.92,139.96,88.75,139.79L88.75,139.79z M89.09,138.94c1.02-0.17,2.05-2.56,1.37-1.88
		C90.47,137.57,89.44,138.25,89.09,138.94z M89.95,124.95C90.12,124.95,90.12,125.12,89.95,124.95L89.95,124.95z M91.32,128.19
		c-0.17-0.85,1.2-2.55,0-3.07C90.47,125.97,90.3,127.68,91.32,128.19z M91.49,121.02c-0.17-0.17-0.34-0.17-0.34-0.17
		C91.15,121.02,91.32,121.02,91.49,121.02z M92.35,133.82v0.34C92.52,133.99,92.52,133.47,92.35,133.82z M92.01,131.08
		c-2.4-0.68-0.69,3.93-0.52,3.59c1.04,0.17,1.72,0,2.4,0.85c0.52,0.17-0.34-1.19-0.51-1.02c-0.52-0.68-1.2,0.51-1.37-0.85
		C92.18,133.13,92.69,131.08,92.01,131.08z M93.38,116.58C93.38,116.93,93.55,116.58,93.38,116.58L93.38,116.58z M93.55,126.14
		C93.72,125.97,93.72,126.14,93.55,126.14L93.55,126.14z M94.58,135.69c-0.69-0.17,0.34,1.03,0.51,1.03
		C95.43,136.89,95.09,135.35,94.58,135.69z M95.43,116.93C95.43,116.75,95.6,116.75,95.43,116.93
		C95.6,116.75,95.6,116.93,95.43,116.93z M95.43,118.12c0,0.17,0.17,0.34,0.17,0.17C95.6,118.12,95.6,118.12,95.43,118.12z
		 M95.6,137.91C95.6,137.57,95.77,137.74,95.6,137.91L95.6,137.91z M95.6,116.24v0.34C95.6,116.58,95.77,116.24,95.6,116.24z
		 M95.26,137.4v0.51c-0.17,1.2-0.85,1.03-1.71,1.03c-0.52,0.17-1.2,1.87-0.34,0.51c2.05,0,0.17,0.68,1.88,1.54
		c1.03,0.34,0-0.69,0.51-1.2c0.69,1.88,0.69-1.7-0.34-1.88C95.6,137.91,95.43,137.4,95.26,137.4z M95.95,123.92
		C95.95,123.58,96.12,123.58,95.95,123.92C95.6,124.27,95.77,124.27,95.95,123.92z M95.95,142.35c0.17,0,0.17-0.34,0-0.34
		C95.77,142.18,95.77,142.35,95.95,142.35z M95.43,146.78c-0.17,0-0.68,0-0.51,0.17C95.09,146.95,95.26,146.95,95.43,146.78z
		 M95.09,147.12l0.17,0.17C95.26,147.12,95.26,147.12,95.09,147.12z M95.09,143.03c0-0.17,0-0.34-0.17-0.34
		C94.92,142.69,94.92,142.86,95.09,143.03z M94.4,144.22c-0.51,1.36-2.57-0.34-3.08,0.68c-1.54,1.03-0.85,2.9-0.85,4.61
		c1.37,0.85,0.34-3.07,1.37-1.7c-0.34,0.33,0.68,1.7,0.68,1.19c1.89-0.69-0.34-0.17,0.34-1.2c-0.92-0.81-0.43-0.98,0.14-1.29
		c-0.02,0.08,0.26,0.22,0.38,0.1c0.34-0.17,0-0.17-0.17-0.17c-0.09,0-0.1,0.02-0.14,0.03c0.26-0.12,0.49-0.31,0.65-0.55
		c-1.03,0.18-3.6,1.03-2.23-0.85C92.01,145.41,95.77,145.24,94.4,144.22z M93.89,151.73c0,0.17-0.17,0-0.17,0.17
		C93.89,151.9,94.06,151.9,93.89,151.73z M93.55,151.73c-0.17,0-0.17,0.17-0.34,0.17C93.55,152.07,93.72,151.56,93.55,151.73z
		 M92.7,148.99c-0.18,0.18-0.18,0.35-0.35,0.35C92.69,149.68,93.04,149,92.7,148.99L92.7,148.99z M92.18,149.34v0.17
		C92.35,149.85,92.52,149.34,92.18,149.34z M91.15,149.85v0.34C91.15,150.02,91.32,149.85,91.15,149.85z M90.81,136.03
		c0,0.17,0.34,0.35,0.34,0.17C91.15,136.03,90.98,135.86,90.81,136.03z M91.15,134.84c0,0,0-0.17-0.17-0.17
		C90.98,134.84,91.15,134.84,91.15,134.84z M90.98,137.4h0.17C91.15,137.23,90.98,137.23,90.98,137.4z M90.98,136.55
		c0.17-0.17,0.17-0.17,0-0.17C90.81,136.38,90.81,136.38,90.98,136.55z M90.64,141.5c0.17,0,0.34,0,0.34-0.17
		C90.81,141.32,90.81,141.5,90.64,141.5z M91.84,136.03c0.85-0.17,0-1.36-0.52-1.02C91.67,135.18,91.67,135.69,91.84,136.03z
		 M91.5,140.98h0.34C91.84,140.81,91.5,140.81,91.5,140.98z M92.86,135.86C93.03,135.69,93.03,135.86,92.86,135.86L92.86,135.86z
		 M92.52,136.38c0.52,0.34-0.34,1.53,0.85,0.51C93.89,136.55,92.69,136.2,92.52,136.38z M93.72,135.69
		C93.72,135.86,93.89,135.86,93.72,135.69L93.72,135.69z M93.38,135.69c0.17,0.34-0.17,0.51,0.17,0.34
		C94.4,136.72,94.06,135.86,93.38,135.69z M94.06,137.91c0,0.34,0.34,0.17,0.52,0.17C94.75,137.4,94.23,137.57,94.06,137.91z
		 M94.75,137.57c0.85,0-0.52-1.54-0.34-0.51C94.75,136.89,94.58,137.57,94.75,137.57z M94.06,138.25l0.17,0.17
		C94.23,138.25,94.23,138.25,94.06,138.25z M93.89,137.4c0,0.34-0.17,0.51-0.17,0.85C94.06,137.91,94.4,136.2,93.89,137.4z
		 M93.34,138.32c-0.02,0.05,0.04,0.06,0.09,0.05c0.06,0.02,0.07,0.04,0.12,0.05c0-0.34,0.34-1.36-0.17-1.36
		C93.07,137.67,92.76,138.01,93.34,138.32z M93.04,137.4c0.17,0,0.17,0,0.17-0.17C93.04,137.23,92.86,137.23,93.04,137.4z
		 M93.55,135.52c0-0.17,0-0.34-0.17-0.34C93.21,135.52,93.38,135.52,93.55,135.52z M92.7,135.69c0,0-0.18,0.17-0.18,0.34
		C92.69,136.38,92.69,135.86,92.7,135.69L92.7,135.69z M92.52,135.18c0-0.17,0-0.34-0.17-0.34
		C92.35,135.01,92.35,135.18,92.52,135.18z M92.52,140.3h-0.17C92.01,140.3,92.52,140.64,92.52,140.3z M94.75,146.78
		c-0.17,0-0.69-0.17-0.69,0.17C94.23,146.95,94.75,146.95,94.75,146.78z M94.06,151.73c0.14,0,0.24-0.04,0.29-0.1
		C94.25,151.66,94.06,151.59,94.06,151.73z M94.23,136.72c0.17,0,0.35-0.17,0.17-0.17C94.4,136.55,94.23,136.55,94.23,136.72z
		 M94.23,125.63C94.06,125.8,94.4,125.8,94.23,125.63L94.23,125.63z M94.06,134.67c-0.17,0.34,0.17,0.34,0.17,0
		C94.23,134.5,94.06,134.33,94.06,134.67z M94.06,117.44c-0.17,0-0.51,0-0.51,0.17C93.72,117.78,94.06,117.61,94.06,117.44z
		 M90.64,119.49c0-0.17-0.17-0.17-0.34-0.17C90.3,119.49,90.64,119.49,90.64,119.49z M90.3,152.07v-0.17
		C90.3,151.73,90.12,152.07,90.3,152.07z M89.09,152.24c0.67,0.09,0.93-0.12,0.89-0.3c0.12,0.08,0.12,0,0-0.02
		c-0.05-0.19-0.4-0.36-0.89-0.19C90.3,151.9,87.03,152.24,89.09,152.24z M89.44,152.58c0.34,0.17,1.03,0.69,1.37,0.51
		C90.64,152.58,89.78,152.24,89.44,152.58z M93.21,149.51c-0.17-0.17,0-1.2-0.17-0.34C92.86,149.68,92.69,149.85,93.21,149.51z
		 M95.43,151.21c-0.34-0.16-0.68,0.35-0.17,0.18C95.6,151.56,95.95,151.04,95.43,151.21z M96.12,146.1
		C96.29,145.93,96.29,146.1,96.12,146.1L96.12,146.1z M96.12,145.75C96.29,145.75,96.29,145.93,96.12,145.75L96.12,145.75z
		 M96.63,118.29c0-1.7,0.34,2.39,0.51,1.2c0-0.52,0.35,0.17,0.17,0.51c0.52,0-0.17-0.68,0.35-0.51c0-1.37,0.17-1.88-0.69-2.39
		c1.13-0.38,1.89-1.11,2.62-0.73c-0.01,0.1,0.02,0.22,0.12,0.22v-0.15c0.29,0.22,0.53,0.51,0.69,0.84c1.02-0.85-0.18-1.71,1.02-1.37
		c0.52,0.68,1.89-2.05,1.72-0.34c0.77-0.77,0.29-6.13-0.71-6.51c0.06-0.1,0-0.12-0.32,0.03c0.12-0.08,0.22-0.06,0.32-0.03
		c-0.05,0.1-0.24,0.29-0.32,0.38c-0.17-0.35-0.34-0.52-0.34,0c-0.18,0.85,0.68,2.04-0.18,3.58c-1.02,1.7-1.37-1.02-1.54,1.88
		c-1.37,0.34-3.6,1.36-3.77,3.24C96.12,117.95,96.29,118.29,96.63,118.29z M101.09,98.33c-2.22-2.39-2.91-5.97-4.28-6.65
		c0,0.69,0.85,3.42,2.06,5.29c0.85,2.39,0.68,5.1,2.21,3.94c0.19,0.3,0.26,0.39,0.02-0.02c0,0.02-0.02,0.02-0.02,0.02
		C100.46,99.88,98.47,96.37,101.09,98.33z M103.32,103.96c0.17-1.19-0.35,0.34-1.04-0.17c-0.85-0.17-1.37-1.7-2.05-1.19
		c1.38,2.39-1.02,2.55,0.35,4.44c1.54-1.03-1.2-0.85,0.68-1.54c1.37,0.85,1.03,0.51,1.71-0.51C104,104.82,104,104.47,103.32,103.96z
		 M104,103.28c-0.51-0.17-0.34,0.34-0.51,0.68C103.66,104.3,103.83,103.45,104,103.28z M101.26,112.83c0.34-0.17-0.17-0.85,0-0.17
		C101.43,112.66,101.26,112.66,101.26,112.83z M100.57,107.89c0,0.34,0.17,0,0.17-0.17L100.57,107.89z M98,114.88
		C98.17,114.71,98.17,114.88,98,114.88L98,114.88z M102.29,146.61c0.17,0.17,0.68,0.34,0.85,0
		C102.97,146.78,102.63,146.78,102.29,146.61z M102.63,146.27c0.69,0.17,0-0.52-0.34-0.34C102.46,146.1,102.63,145.93,102.63,146.27
		z M101.78,146.27C101.78,146.1,101.95,146.1,101.78,146.27L101.78,146.27z M98.86,146.44c0.17,0,0.17,0,0.17-0.34
		C99.03,146.1,98.86,146.27,98.86,146.44z M98.86,145.41C99.37,145.93,99.54,145.41,98.86,145.41
		C98.34,145.75,99.2,145.93,98.86,145.41z M99.03,116.57C99.05,116.41,99.19,116.41,99.03,116.57c-0.05,0.01-0.1,0.01-0.17,0.01
		c-0.52,0.35-1.37,0.52-0.35,1.37C98.34,117.46,100.56,116.5,99.03,116.57z M98.18,146.95c0,0.17,0.34,0.17,0.34,0
		C98.51,146.61,98.17,146.78,98.18,146.95L98.18,146.95z M97.66,120.17v-0.34C97.49,120,97.49,120.17,97.66,120.17z M97.31,120.34
		c0,0.17,0,0.17,0.18,0.17C97.49,120.34,97.31,120.17,97.31,120.34z M97.31,145.24c-0.51-0.34,0.52-1.53-0.68-0.51
		c0-0.17,0.51-1.37-0.17-0.68c-0.17,0.68-0.17,1.7,0.51,2.05C96.63,145.58,96.29,144.9,97.31,145.24z M96.46,122.73
		c0,0.17,0,0.17,0.17,0.17L96.46,122.73z M96.46,118.29v0.34C96.63,118.46,96.46,118.29,96.46,118.29z M96.8,122.56
		c0-0.17,0.34-0.51,0-0.34C96.63,122.22,96.46,122.56,96.8,122.56z M97.31,143.88c0-0.34-0.17-0.17-0.34-0.17
		C96.97,143.88,97.14,143.88,97.31,143.88z M96.63,146.1c0-0.18-0.17-0.18-0.17-0.35C96.12,145.75,96.46,146.1,96.63,146.1z
		 M96.97,146.78c-0.17-0.34-0.51-0.34-0.51-0.17C96.46,146.78,96.8,146.78,96.97,146.78z M96.46,151.56c0,0.17,0.34,0.17,0.34,0
		H96.46z M98.86,151.56c0.17,0,0.17,0,0.17-0.17c0.17,0.34,0.68-0.51,0.34-0.51c-0.17,0.17-0.34,0.34-0.34,0.51
		C99.03,151.56,98.86,151.56,98.86,151.56z M104.35,103.96c0.16,0,0.16,0,0.16-0.17C104.34,103.79,104.35,103.79,104.35,103.96z
		 M104.51,102.94c0-0.17,1.37-1.7,0.52-1.03C104.69,101.74,104.18,103.28,104.51,102.94z M106.05,100.72
		c-0.17,0.17-0.17,0.34-0.34,0.51C105.37,102.08,106.56,100.72,106.05,100.72z M106.91,99.53v0.34
		C106.91,99.87,107.08,99.53,106.91,99.53z M107.76,95.09c-0.33,0.18-0.33,0.69,0,0.69C108.11,95.44,107.94,94.23,107.76,95.09z
		 M108.11,94.75c0.17,0-0.17-0.34-0.17-0.17S107.94,94.75,108.11,94.75z M107.6,96.63v-0.35C107.42,96.46,107.42,96.63,107.6,96.63z
		 M107.42,96.8C107.6,96.8,107.6,96.97,107.42,96.8C107.42,96.97,107.6,96.97,107.42,96.8z M107.42,97.31v0.17
		C107.6,97.48,107.42,97.31,107.42,97.31z M107.25,94.75h0.18C107.6,94.58,107.25,94.58,107.25,94.75z M109.14,135.18
		c0.17,0,0.17-0.17,0.17-0.34C109.14,134.84,108.97,135.01,109.14,135.18z M109.82,133.48C109.99,133.3,109.99,133.48,109.82,133.48
		L109.82,133.48z M110.01,148.98C110.05,148.95,110.1,148.9,110.01,148.98L110.01,148.98z M111.02,146.78h-0.34
		C110.17,146.78,111.02,147.12,111.02,146.78z M111.54,149.68c0-0.17-0.17-0.34-0.17-0.17L111.54,149.68z M112.57,88.1
		c0-0.34-0.68-0.52-0.68-0.85C111.02,87.25,112.23,88.1,112.57,88.1z M112.57,152.58c0.17-0.17,0-0.34-0.17-0.17
		C112.4,152.58,112.57,152.58,112.57,152.58z M112.91,152.58c0.17,0,0-0.17-0.17-0.17C112.74,152.58,112.74,152.58,112.91,152.58z
		 M113.25,152.75c-0.17,0.17-0.17,0-0.34,0C113.08,152.92,113.25,153.09,113.25,152.75z M114.63,148.49
		c-0.86,0.85-1.2,1.19-2.57,1.02C111.37,150.71,115.82,149.85,114.63,148.49L114.63,148.49z M112.91,146.44
		c0-0.17-0.17-0.17-0.17-0.17C112.74,146.44,112.91,146.44,112.91,146.44z M113.08,149.17c0.18,0,0.18-0.17,0-0.17
		C112.91,149,113.08,149.17,113.08,149.17z M113.08,147.29c0,0.17,0,0.17,0.18,0.17C113.43,147.29,113.26,147.29,113.08,147.29z
		 M113.94,88.1c-0.34,0-0.51-0.34-0.85-0.34C113.25,87.93,113.6,88.27,113.94,88.1z M107.77,83.15c-0.17,0.34,0.85-1.2,0.17-1.2
		C107.25,82.47,107.94,82.47,107.77,83.15z M93.38,92.53c0-0.16,0.17-0.16,0.17-0.34C93.38,92.02,93.21,92.36,93.38,92.53z
		 M93.55,91.34c-0.17,0.17-0.34-0.51-0.52,0C92.7,91.68,93.73,91.85,93.55,91.34z M93.55,92.02c0,0,0.17-0.17,0-0.17V92.02z
		 M92.52,91.34c0,0.34,0.17,0,0.34,0.17C92.7,91.17,92.7,91.17,92.52,91.34z M82.42,142.52c0.17-0.17-0.17-0.51-0.34-0.17
		C82.25,142.35,82.25,142.52,82.42,142.52z M81.9,147.29c0,0.34-0.17,0.17,0,0.51C82.42,147.8,82.59,147.46,81.9,147.29z
		 M81.05,147.63c0.51,0.51-0.18-1.02-0.52-1.02C80.19,146.95,80.36,147.12,81.05,147.63L81.05,147.63z M80.36,143.03
		C80.7,143.03,80.7,143.2,80.36,143.03L80.36,143.03z M79.51,137.74c0.16-0.17,0-0.34-0.18-0.34
		C79.33,137.57,79.33,137.74,79.51,137.74L79.51,137.74z M79.33,144.56c0,0-0.17,0-0.17,0.17C79.33,144.73,79.5,144.56,79.33,144.56
		z M79.67,144.73c0.17,0.17,0.17-0.34,0-0.34C79.33,144.56,79.5,144.56,79.67,144.73z M79.67,145.75
		C79.5,145.75,79.67,146.1,79.67,145.75L79.67,145.75z M79.84,145.58c0.52,0.34-0.17-0.34-0.17,0H79.84z M78.14,136.2
		C77.96,136.2,77.96,136.38,78.14,136.2L78.14,136.2z M76.59,138.25v-0.17C76.42,138.08,76.59,138.25,76.59,138.25z M76.25,141.15
		c0,0.18,0,0.18,0.17,0.18C76.42,141.15,76.42,141.15,76.25,141.15z M74.88,139.28C74.88,139.45,75.05,139.62,74.88,139.28
		L74.88,139.28z M71.28,135.01c-0.18,0.17-0.18,0.68-0.18,0.85C71.45,135.86,71.28,135.18,71.28,135.01z M71.11,137.06
		c-0.17,0-0.17,0.17-0.17,0.34C71.11,137.57,71.11,137.06,71.11,137.06z M71.11,136.21v0.68C71.11,136.72,71.28,135.86,71.11,136.21
		L71.11,136.21z M71.45,139.28c0.17,0,0.17-0.17,0-0.17V139.28z M71.62,139.79C71.45,139.79,71.62,139.62,71.62,139.79L71.62,139.79
		z M71.8,140.3c0-0.17,0-0.68-0.17-0.34C71.62,140.13,71.8,140.13,71.8,140.3z M73.51,143.37c-0.17-0.17-0.34-0.34-0.34,0H73.51z
		 M74.2,144.39l0.51,0.51C74.88,144.73,74.54,144.22,74.2,144.39L74.2,144.39z M75.05,145.75C75.05,145.93,75.22,146.1,75.05,145.75
		L75.05,145.75z M75.22,146.44c0.17,0,0.17,0.34,0.52,0.34C75.91,146.44,75.39,145.93,75.22,146.44z M75.39,145.41
		c0.17-0.17-0.17-0.17-0.17,0H75.39z M76.08,147.12C75.91,147.12,76.08,147.29,76.08,147.12L76.08,147.12z M76.59,147.8
		c0,0,0-0.34-0.17-0.17C76.42,147.8,76.59,147.97,76.59,147.8z M80.17,149.51c1.35-0.36,0.03-2.56-1.94-4.62
		c0.07,0.01,0.15,0.02,0.23,0.01c0.51,0.34-0.35-0.85-0.35-0.17c0,0.07,0.04,0.09,0.07,0.1l-0.17-0.17
		c0.22-0.24,0.06-0.26-0.24-0.26c0,0,0.02,0,0.02,0.02l-0.3-0.31c0.06-0.02,0.13-0.09,0.13-0.24h-0.34l0.01,0.06
		c-1.57-1.46-3.34-2.65-4.47-2.79C75.22,143.37,77.62,149.85,80.17,149.51z M86.53,152.07c-0.51-2.05-4.11-1.88-6-2.05
		C79.84,151.56,84.82,151.22,86.53,152.07z M86.02,161.28v0.17C86.02,161.45,86.19,161.28,86.02,161.28z M83.96,165.2
		c-0.17,0.18,0,0.35,0,0.35V165.2z M100.58,174.93c-0.34,0.18-0.34-0.17-0.52-0.17C98.69,174.93,100.06,175.27,100.58,174.93z
		 M103.83,179.36c0-0.17-0.34-0.51-0.17,0C103.32,179.7,103.83,179.87,103.83,179.36z M105.38,181.07
		c-1.37-0.51-1.71-1.02-1.54,0.85c-0.36,1.52,0.26,1.81,0.96,1.5c0,0.02,0.02,0.04,0.07,0.04c-0.02-0.04-0.02-0.05-0.02-0.07
		c0.37-0.2,0.69-0.48,0.94-0.82c0.24-0.34,0.4-0.74,0.45-1.16C106.92,180.56,105.71,180.73,105.38,181.07z M104,180.22
		c0,0,0.17-0.17,0-0.17V180.22C104.18,180.39,104,180.39,104,180.22C104.18,180.39,104.18,180.22,104,180.22z M106.24,180.22h0.34
		C106.75,180.05,106.24,180.05,106.24,180.22z M106.41,179.7c-0.17,0-0.17,0.17,0,0.34C106.75,180.04,106.75,179.7,106.41,179.7z
		 M113.12,165.75c0.12-0.24,0.38-0.47,0.14-0.72c0.1,0.19-0.07,0.4-0.18,0.58c-0.3-0.91-0.75-1.69-1.02-2.63
		c-0.52,0.52-1.2-2.04-1.89-2.38c-1.37-0.52-1.19-2.56-1.19-3.93c-2.06-0.51-1.37-1.88-2.23-3.07c-1.37,1.19,0,5.29-2.4,5.46
		c-2.22-1.7-3.77-2.22-1.54-4.44c-0.82,0-1.99,0.15-3.3-0.78c0.01-0.04,0.05-0.07,0.05-0.07c-0.05,0-0.07,0.03-0.09,0.05l-0.09-0.05
		c-0.85,0,0.85,0.34,0,0.85c-0.85-0.17-1.37,0.17-1.71,0.68c-1.37,1.54,0.68,1.37-1.54,1.37c-0.35,0.68,0.17-1.7-1.89-0.34
		c-0.68,0-0.51,2.05-1.71,1.36c0,0.17,0.51,0.69,0.16,0.69c0,1.19-0.51-1.2-0.68-0.17c-0.36,0.92-1,1.69-1.83,2.22
		c-0.84,0.52-1.82,0.76-2.8,0.68c-0.68,0.17-2.22,1.87-1.88,0.85c-1.19,0.85,0,5.29-0.85,3.07c-0.17,0.69,0.51,1.2-0.34,0.69
		c0.85,1.53,1.71,5.29,0.34,6.14c-0.17,4.95,14.22-6.31,14.39,1.88c1.54-1.03,3.25-2.74,0.85,0.51c1.54-0.85,1.37-0.85,1.03,0.34
		c1.54-0.17-0.51,2.39,2.74,3.59c2.22-2.05,1.03,1.7,3.08-0.51c2.05,0.17,2.23-2.05,3.42-3.76c1.37-1.7,2.4-3.24,3.26-5.63
		C113.5,167.42,113.4,166.56,113.12,165.75z M102.46,156.17c-0.17-0.17,0-0.34-0.34-0.17C101.95,156.34,102.63,156.34,102.46,156.17
		z M102.46,157.36C102.29,157.53,102.46,157.53,102.46,157.36L102.46,157.36z M101.95,156C101.95,155.83,102.12,155.83,101.95,156
		L101.95,156z M113.77,151.9c0-0.17,0-0.17-0.17-0.17L113.77,151.9z M114.46,152.25c0,0-0.17,0-0.17-0.17
		C114.11,152.25,114.46,152.25,114.46,152.25z M114.63,153.95c0,0.18,0.17,0.18,0.17,0.18C115.14,154.12,114.8,153.95,114.63,153.95
		L114.63,153.95z M114.97,148.84c1.02,0.34-0.85-1.71-1.37-1.37C114.11,147.98,115.14,147.98,114.97,148.84z M115.31,153.78
		c0,0.17-0.17,0.17-0.17,0.17C115.31,153.95,115.31,153.95,115.31,153.78z M115.66,89.81c0,0.34-0.51,0.52-0.68,0.69
		C115.48,90.66,116.68,89.47,115.66,89.81z M116.86,89.47c0.17,0-0.51,0.51-0.85,0.51C116.86,90.66,118.06,88.79,116.86,89.47z
		 M116.51,149.35c0,0,0-0.34-0.17-0.17C116.34,149.18,116.34,149.35,116.51,149.35z M117.37,150.37c0-0.34-0.68-0.85-0.85-0.85
		C116.51,150.03,116.86,150.88,117.37,150.37z M117.2,188.41c0.17,0.34-0.51,0.68-0.17,0.51
		C117.54,188.92,117.88,188.41,117.2,188.41z M124.05,182.44c-0.69,0.85-0.51-1.03-1.2-0.35c-1.2,2.91-4.8,3.25-5.65,5.29
		c0.52,2.56,2.74-0.16,4.11-1.53c1.2-0.34,1.03-1.03,2.74-2.39C123.71,182.95,124.39,182.78,124.05,182.44z M121.65,161.63
		c0.52,0.85,0.85,1.36,1.71,1.7C123.19,162.82,121.65,160.78,121.65,161.63z M123.36,161.46c0,0.17,0,0.17-0.17,0.17
		C123.54,161.8,123.71,161.46,123.36,161.46z M124.05,162.14C123.54,162.31,124.05,161.29,124.05,162.14L124.05,162.14z
		 M123.88,182.27c0-0.17,0.17-0.17,0.17-0.17C123.88,181.93,123.88,182.27,123.88,182.27z M124.05,153.61
		c-0.17-0.17-0.34-0.17-0.34,0C123.88,153.78,123.88,153.61,124.05,153.61z M124.22,156.68c-0.17,0.85-0.17-0.51-0.34,0.17
		C123.88,157.53,124.56,157.36,124.22,156.68z M124.56,162.48c0,0-0.17-0.17-0.34-0.17C124.22,162.65,124.39,162.65,124.56,162.48z
		 M124.56,158.22c0.35,0.17,0-0.69-0.17-0.52C124.56,157.87,124.56,158.04,124.56,158.22z M127.99,179.03
		c0.17-0.68-1.37,0.68-1.72-1.7c0.18,1.7-0.68-0.35-0.17-0.85c0.18-0.86-0.51-0.69-0.68-1.37c-0.17,1.71,0.68,2.05,0.34,3.76
		c0.17,0.85-1.2,1.2-1.37,1.88c1.71,0.68-0.34,1.7,0,2.05C126.28,182.27,126.96,180.22,127.99,179.03L127.99,179.03z M124.74,158.04
		c0,0.18,0.35,0.18,0.35,0C125.08,157.87,124.91,157.87,124.74,158.04z M124.74,157.19C124.91,157.36,125.08,157.19,124.74,157.19
		L124.74,157.19z M125.08,158.39c0-0.17-0.17-0.17-0.17,0H125.08z M124.91,159.07c0,0.17,0.17,0.34,0.17,0.17
		C125.08,159.07,125.08,158.9,124.91,159.07z M125.42,160.26c0-0.17,0-0.17-0.17-0.34C125.25,160.09,125.25,160.26,125.42,160.26z
		 M126.62,87.25c0,0-0.17,0-0.17,0.17C126.62,87.42,126.79,87.25,126.62,87.25z M126.79,177.32v-0.17
		C126.62,177.32,126.62,177.32,126.79,177.32z M135.19,84.17c0,0.17-0.17,0-0.17,0.17C135.19,84.34,135.36,84.17,135.19,84.17z
		 M138.95,89.12v0.34C139.12,89.46,139.12,88.95,138.95,89.12z M140.15,93.39c-1.37,1.19,0.34,0-0.85-0.17
		c-0.52,0.68,0.17,2.9,0.34,2.39C139.47,94.41,139.64,94.58,140.15,93.39z M139.47,90.83c0.34,0,1.02-1.2,0.17-1.03
		C139.81,90.32,139.47,90.32,139.47,90.83z M139.98,90.83c-0.17,0-0.17,0.17-0.17,0.17C139.98,91,140.15,90.83,139.98,90.83z
		 M139.64,92.36c0,0.18,0,0.35,0.17,0.35C139.81,92.71,139.64,92.02,139.64,92.36L139.64,92.36z M139.47,88.96
		c-0.18,0.5-0.35,0.85-0.18,1.36C139.29,90.83,139.81,89.12,139.47,88.96L139.47,88.96z M140.15,90.66c-0.17,0.67-0.17,1.38,0,2.05
		C140.66,92.37,140.49,91.17,140.15,90.66z M140.15,89.63c0.17,0.34-0.17,1.03,0.34,0.85C140.32,90.14,141.01,89.8,140.15,89.63z
		 M140.66,90.83c0,0-0.17,0-0.17,0.17C140.66,91,140.66,90.83,140.66,90.83z M140.66,91v0.17C140.84,91.34,140.84,91,140.66,91z
		 M140.66,92.19v0.17C141.01,92.54,140.84,92.19,140.66,92.19c0.18,0,0.18-0.17,0-0.17C140.49,92.02,140.66,92.02,140.66,92.19z
		 M140.66,92.71C140.66,92.54,140.84,92.54,140.66,92.71L140.66,92.71z M140.66,93.9h0.35C141.18,93.73,140.66,93.56,140.66,93.9z
		 M140.84,93.22C141.01,93.05,141.01,93.22,140.84,93.22L140.84,93.22z M140.66,94.07c-0.17,0.34,0.18,0.34,0.18,0.68
		C141.18,94.75,140.66,94.24,140.66,94.07z M169.97,179.88c-0.1,0.12-0.07,0.22,0,0.32v0.02h0.02c0.05,0.05,0.1,0.12,0.15,0.17
		C170.31,180.22,170.14,179.88,169.97,179.88z M170.14,177.14C169.97,177.14,170.14,177.31,170.14,177.14L170.14,177.14z
		 M170.31,181.75c0-0.17,0.17-0.34,0-0.34C170.14,181.41,170.14,181.58,170.31,181.75z M169.97,180.56c0,0.34,0,0.17,0.17,0.17
		C170.31,180.39,170.14,180.39,169.97,180.56z M169.97,181.07C170.14,180.9,170.14,181.07,169.97,181.07L169.97,181.07z
		 M170.14,181.75c0.17,0,0.17,0.48,0.34,0.17c0.06,0.05,0.07,0.07,0,0C170.39,181.87,170.23,181.75,170.14,181.75z M170.48,181.75
		C170.31,181.58,170.82,181.75,170.48,181.75L170.48,181.75z M170.48,182.26c0.17,0-0.34-0.34-0.17,0
		C169.97,182.44,170.48,182.44,170.48,182.26z M170.31,182.61C170.65,182.44,170.65,182.95,170.31,182.61
		C170.14,182.95,170.31,182.78,170.31,182.61z M171.16,183.63c-0.34,0-0.85-0.34-0.68,0C170.65,183.63,170.98,183.8,171.16,183.63
		c-0.35,0.17-0.34,0.17,0.01,0.34C171.34,184.14,171.67,183.8,171.16,183.63z M170.65,183.12c0.34,0.17,0.17-0.17,0-0.34
		C170.82,182.95,170.82,182.95,170.65,183.12z M170.82,182.78c-0.17-0.17-0.17-0.34-0.17-0.34
		C170.65,182.61,170.65,182.78,170.82,182.78z M172.19,183.46C172.02,183.46,172.02,183.8,172.19,183.46
		C172.19,182.95,172.36,183.63,172.19,183.46z M173.22,181.92c-0.17,0-0.17,0.17-0.17,0.17S173.22,182.09,173.22,181.92z
		 M173.22,181.75c0,0-0.17,0-0.17,0.17C173.22,181.92,173.22,181.75,173.22,181.75z M188.65,151.54
		C188.69,151.5,188.74,151.46,188.65,151.54L188.65,151.54z M194.81,124.44c0,53.22-43.18,96.21-96.64,96.21
		c-53.46,0-96.63-43.16-96.63-96.21c0-53.05,43.35-96.22,96.64-96.22C151.47,28.22,194.81,71.21,194.81,124.44z M114.46,67.97
		c-0.17-0.68-0.17-0.51-0.85-0.68c0.34-0.85-0.34-0.85-0.52-1.36c-1.02,0,1.04-0.69,0.18-1.2c0.17-0.85-2.4-1.88-2.4-0.51
		c-1.2-0.51,0,0.17,0,0.85c1.37,0.34-0.69,0.51-1.2-1.02c-1.03-0.68-0.34,0.17-1.2-0.34c-2.4,0.34-4.45-1.37-7.37-0.52
		c-3.25,0.35-1.54,0.52-0.34,2.56c-0.85,0.68-1.89-0.69-2.91-1.2c0,1.37-1.71,0.68-2.74,1.2l-0.04,0.18
		c-0.03-0.01-0.06-0.01-0.13-0.01c0,0,0.02,0.09,0.1,0.13c-0.24,1.08-0.12,0.43-0.27,1.06c-0.69-1.36-1.71,0-1.89-1.19
		c-1.54-3.25-4.97,1.02-5.83-0.52c-0.51-0.51-0.51,0.17-1.02,0.35c0-0.52-0.17-0.85-0.34-0.18c-0.18-0.51-0.18-0.51-0.86-0.34
		c0-0.68,0.85-0.17,0.17-0.85c-2.19-1.33-2.05,3.28-2.38,0.79c0.43-0.16,0.73-0.36-0.02-0.11c0.02,0.05,0.02,0.07,0.02,0.1
		c-0.46,0.15-1.06,0.26-0.7-0.27c1.71-0.17-3.08-0.34-2.91,1.2c1.2,0.34,0.17,0.17,1.2,1.02c0.85,0.85-2.06,0-0.35,1.02
		c0,0.52-2.05-0.85-2.22,0.52c-2.23-0.17-1.2-0.51-1.03,1.7c-1.71-0.34-2.05-1.02-3.25-1.7c2.05,0.17-0.51-1.03-0.34-1.71
		c-5.83-0.85-1.03,1.2-4.45,1.7c-1.72,0-1.37-1.19-3.43-0.33c-0.34,0,0.17,1.19-0.34,0c-1.03-0.85,0.17,0.17-0.69,0.17
		c-0.68,0.17-1.19-1.03-1.54,0.17c1.71-0.17-1.04,1.7-1.2,2.39c0-1.37,0.99-2.83,1.42-4.1c0,0.13,0.04,0.26,0.12,0.17
		c1.19,0.68,0.85-1.36,0-0.51c-0.02,0-0.02,0.03-0.05,0.02c0.21-0.82,0.1-1.56-0.82-2.08c2.74,0.51-3.42-2.9-3.25,0
		c-1.2,0.68,0-0.51-0.68-1.19c-0.86,0.34-0.86,0-1.2,0.34c-0.52-0.17,1.02-0.85-1.2-0.68c-1.71,2.39,2.05,3.07-0.34,2.9
		c-1.37,0.34,1.37,0.34,0.17,1.19c0.17-1.36-0.85,0-1.03-0.17c-0.51,0.68-1.03-0.34-2.05,0.51c-0.17,0.85,0.51-0.17,0.51,0.35
		c-0.85,0.34-1.37,1.02-1.89,1.19c-0.85,1.37-0.34,0.51-0.68,1.7c-0.85-0.68-0.17,0.35,0.52,0.35c-1.2,0.17,0.17,0.51,0.68,0.68
		c-0.17,0.51-0.17,1.54-0.68,0.85c0.85-1.53-1.54,0.35-2.4,0.52c-0.69,0.17,0.51,1.02,0.51,1.7c2.74-0.34,1.89,4.1,4.11,3.42
		c1.46,0.49-1.61,0.67-1.86-0.85c0.15,0,0.15-0.16,0-0.16v-0.17c-0.55,1.01-0.38,0.3-0.4-0.39l0.05,0.05V76.5
		c-0.03,0-0.03,0.02-0.05,0.02c-0.04-0.57-0.26-1.06-1.15-0.53c-1.54-1.03-2.4-1.03-1.72,0.34c-2.39-0.34,0.18,0.85,0.86,1.19
		c-1.71,0.17-1.89-0.17-2.74-2.22c0.69,1.03-1.03,2.39,0.69,2.9c0.51,1.7,0.17,2.73,2.05,2.04c1.37,0,0.85,1.37,1.54,1.88
		c1.2,0-0.34,0.5-0.34-0.18c-2.74-4.44-0.17,4.78-4.28,2.56c0.17-0.85,1.37,0.17,1.54-0.17c0.34-0.68,1.03-2.39-0.34-3.41
		c-0.85-1.7-0.85-4.44-2.4-5.29c-1.2,0-1.2,0.68-0.85,1.87c-0.18,0.85-1.04,1.37-0.18,2.05c0,1.88,1.89,1.37,1.72,2.9
		c-0.35,0-5.31-2.9-4.46-0.34c0.86,0.34-0.68,2.05-0.68,0.51c-5.65,3.76,0.34-2.04-5.48,2.73c0.34,1.02-0.85,1.36-1.37,0.51
		c0.34-0.68,1.03-1.2-0.17-1.37c-1.37-0.17,0.34,1.88,0,3.25c-2.57-1.88-1.03,3.58-3.6,1.36c-0.69,0.85,2.05,1.54,0,1.54
		c-1.37-0.34-0.69-1.7-1.54-2.56c-0.52,0.17-1.55-1.71,0-0.34c1.88,0.85,4.97-0.69,2.39-2.56c0,0.51-1.37-1.03-2.22-1.03
		c-0.85,0.17-0.85,0.34-1.2,0c-0.69-0.17,0.17,0,0.17-0.34c-0.69-0.34-1.03,0.85-1.54,0c-1.03,0.17,2.05-0.85,0.17-0.68
		c0.34-0.52-0.68,0.17-0.34-0.34c-1.03,0.68-0.52,0.51-0.52-0.35c-0.68-0.17-0.68,2.05-0.85,0.35c-1.2,2.55,0,0-0.52,0.17
		c-0.34-0.35-0.68,1.02-0.85,1.19c-0.34-0.68-0.85-0.34-0.51,0.34c-0.18-0.34-0.69-0.17-0.52,0.34c-0.68,1.03,0-1.02-0.34,0
		c-0.17,0.52,0.17-0.51-0.17-0.17c-0.34,0.17,0.17,0.52,0,0.69c-0.34-0.69-0.52,0.34-1.03,0.85c-0.34,0,0.85,0.34,0,0.17
		c-0.34,0.51-0.17,0-0.68,0.68c0.51,0.52-0.52,0.34,0.17,0.85C18,88.78,18.85,89.81,17.83,91c-0.86,0.34-1.04,2.05-0.18,0.51
		c-0.17,1.37-0.51,0.51-1.02,0.85c0,0.35-0.69,0.18-0.17,0.69c-0.86-0.52,0.34,0.51-0.52-0.17c-0.68,0,0.85,0.51-0.51,0.51
		c-0.34,0.51-1.89,0.34-1.71,0.85c1.02,0.17,0.34,0-0.17,0.34c0.34,0.17,0.34,0,0,0.34c-0.18,0.69,1.02-0.34,0.85,0
		c0.69-0.51-0.34,0.85-0.17,0.18c-1.2,0.17-0.51,0.34-0.51,0.85c-0.17,0.68,0.68-1.02,0.34,0.17c-0.17-0.34-0.34,0.34-0.17,0.34
		c-0.17,0.17-0.69,0.34-0.34,0.68c0.17-0.51,0.51,0.69,0.17,0.35c-0.85,1.02,1.71,1.02,1.54-0.52c-0.34-0.85,0.34,0.85,0.17,0
		c0.51,0.34,0-1.02,0.34-0.68c-0.17,1.7,0.85,2.39,0.85,4.27c0.18,0.17,0,0,0,0.34c0.12,0.12,0.24-0.27,0.18-0.39
		c0.79-0.17,1.27-0.81,1.51-1.57c0.02,0.04,0,0.08,0.04,0.08c0-0.34,0.34-0.85,0.17-1.02l-0.02,0.12c0.02-0.18,0.02-0.31,0.02-0.46
		c-0.51-0.52,1.71-1.2-0.17-1.2c1.34-0.26,1.25-0.48,0.94-0.83c0.03-0.05,0.09-0.1,0.09-0.19c-0.05,0-0.1,0.05-0.16,0.1
		c-0.29-0.35-0.67-0.79-0.36-1.47c-0.3-1.52,1.03-1.69,1.56-2.69c-0.02,0.01-0.02,0.05-0.02,0.13c0.17,0,0.17,0,0.17-0.17
		c-0.09,0-0.13,0-0.15,0.02c0.07-0.11,0.12-0.24,0.15-0.36c0.18-0.85,0.18-2.55,2.06-1.53c-0.72,2.13-2.61,2.85-1.83,4.92
		c-0.02,0-0.04,0.01-0.05,0.03c0.03,0,0.05-0.02,0.06-0.02c0.16,0.41,0.4,0.85,0.79,1.39c1.37-0.85,2.4-1.37,3.08-0.68
		c0.69,0.85-2.05,0.68-2.91,1.36c1.37,4.1-0.51,0.68-1.02,2.22c-0.69,1.02,0,1.54,0.68,2.05c-2.05,1.36-2.4-0.34-4.63,1.53
		c-0.85-1.19-1.54,0.69-2.05-0.85c-0.1-0.46,0.23-0.75,0.46-1.06l0.05,0.04c0.15-0.07,0.15-0.21,0.1-0.33
		c0.01-0.06,0.06-0.12,0.06-0.18c-0.68-0.52-1.19-0.17-1.19,0.51c0.69,2.05,1.2,1.53-0.34,2.05c-2.06,1.02-1.03,2.22-2.91,3.41
		c-0.34,1.2-0.69-0.85-1.03,1.02c-1.71-0.17-1.03,0.85,0,1.2c1.2,5.46-1.89,1.54-3.08,3.75c-0.34,3.42-0.51,6.65,3.42,3.93
		c0-2.05,1.54-2.73,1.89-4.78c1.02,0,1.71,0.17,2.57-1.02c1.37,1.19,2.23,2.9,3.6,3.41c0,2.22,0.87,2.05,0.52,0.34
		c2.06-1.36-0.85-0.85-1.88-3.41c-1.2-0.34,0.34-2.56,0.17-1.03c0.34,0.69,0.17-0.34,0.51-0.34c0.35,1.71,1.72,1.37,2.4,2.73
		c0.34,0.68,0.69,3.24,1.71,2.9c1.37,0.68-0.34-0.17-0.51,0.34c0.34,0.85,1.37,1.7,1.03,0.34c0.17,0,1.19-0.51,0.17-1.03
		c-0.23,0.12-0.09-0.34,0-0.49c0.02,0.07,0.03,0.12,0,0.15c0.07-0.22,0.03-0.24,0-0.15c-0.12-0.38-0.74-1.22-0.17-1.22
		c0.68,1.37,0.17-0.51,1.02-0.33c0.85-0.18,3.08,0.68,1.54-1.37c0.35-1.02,0.86-3.41,2.06-3.75c0.85-0.35-0.34,0.34,0,0.17
		c0.85,0.51,1.2,0,0.68,1.02c0.52,0.85,2.57,0.17,1.89-0.34c-0.26,0.38-0.5,0.1-0.69-0.21c0.19,0.36,0.4,0.68,0,0.04
		c-0.68-0.51-0.68-0.17,0.17-0.85c-0.17,0.68,1.37-1.03,2.4-0.85c-0.85,0.67-0.34,1.36-1.2,1.87c0.34,0.85,3.25,1.36,3.08,3.07
		c-2.39,2.05-3.42-1.36-7.54,0.85c1.03,1.03-1.2,0.17-1.54,1.2c0.68,0.68,0.51,0.85,0.17,1.54c1.2,0.85,0.34,1.02,1.54,1.19
		c0.69,0.68,0.69,0,1.54-0.17c1.03,1.02,1.89,0,2.91-0.17c0,0.79-0.09,1.84-0.34,2.78c-0.02-0.01-0.07,0.02-0.17,0.12
		c-0.52,0-1.89,0.51-0.69,0.68c0.31,0,0.71-0.46,0.82-0.68c-0.3,1.04-0.87,1.88-1.85,1.88c-0.69-1.2-1.37,0.51-2.74-0.17
		c-2.06,0-4.97-2.74-4.8,0.85c-1.71,0-3.42-2.05-4.97-2.22c-0.77-0.61,0.26-2.07-0.29-2.71c0.41-0.44,0.69-1.6-0.05-1.9
		c-0.44,0.44-0.38,1.03-0.24,1.73c-2.02,0.8-3.89-0.17-5.58,1.69c-2.06-0.51-1.89,0.34-3.43,2.05c0,2.9-2.57,4.26-2.74,7.17
		c0.18,3.58-0.17,6.48,1.37,8.87c1.37,5.29,5.14,1.53,8.06,2.72c0.17,1.37,1.37,1.03,2.05,0.85c1.37,1.54-0.34,3.07,0.35,4.27
		c4.62,5.8,1.02,6.82,2.39,11.77c1.54,2.9,1.89,6.14,3.43,8.7c0.34,1.88,0.34,3.24,2.57,2.39c4.46,1.36,5.31-5.12,7.54-6.65
		c-0.52-2.55-0.35-3.59,2.74-4.95c0.85-1.19,0.51-2.05,0.34-3.75c-4.11-6.48,7.19-9.89,7.03-16.21c-1.54,0.34-6.17,2.05-5.31-0.51
		c-2.91-2.39-3.94-5.12-5.48-8.53c0-0.34-3.42-6.31-1.37-3.41c0.85,1.19,0.52-0.52,0.85-0.85c-0.16,1.7,1.72,3.24,2.58,4.6
		c0.34,1.88,1.71,3.25,2.91,4.78c0.34,1.2,0,3.59,1.71,3.07c3.6-1.71,10.46-3.93,9.09-7.85c-1.54-0.51-1.89-1.87-2.22-2.39
		c-2.57,3.93-3.43,0.34-5.48-2.05c-0.34-2.9,1.89,0.35,3.08,1.03c0.85,0.85,1.71,0.51,2.74,0.17c0.51,1.54,2.22,1.36,3.6,1.54
		c4.63-0.85,3.08,1.36,6,1.87c0.86-0.34-0.51,0.85-0.85,0.34c0.68,1.37,2.57,1.88,2.39,0c0.35,1.2,1.04,5.12,2.4,7.68
		c2.91,6.48,3.43,1.02,3.94-2.56c1.37-1.03,3.6-2.73,4.11-4.44c1.2-0.85,0.85-0.17,1.88-0.34c0-0.17-0.17-0.34,0-0.52
		c0,1.05,0.4-0.12,0.38-0.32c1.08,0.38,1.04,1.43,1.51,2v0.2c0.05,0,0.09-0.03,0.1-0.09c0.21,0.18,0.48,0.27,0.76,0.25
		c0.17,0.34,0,0.52-0.34,0.34c0.17,0.69,0.51,0.18,0.68,0.34c0.41,0.31,0.33,1.39,0.34,1.94c-0.03,0-0.1,0.04-0.17,0.1
		c0,0.17,0,0.17,0.17,0.17l0.04-0.09c0.04,0.19,0.1,0.22,0.3-0.09c0.18,1.88,1.89-2.73,2.57,1.54c0.69,1.37,0.86,3.07,0.35,4.27
		c1.2,1.02,1.71,3.59,2.91,4.95c2.22,2.39,1.37-1.37,0.17-2.73c-1.71-1.02-3.08-2.55-2.06-5.11c0-2.05,2.91,2.04,3.26,1.7
		c1.02,1.03-0.18,2.05,1.71,0.51c3.09-1.53,1.89-3.58-0.68-6.48c-1.71-1.03,0.85-3.42,2.06-2.73c0,0,0,1.37,0.68,0.69
		c-0.51-1.02,3.08-1.7,4.11-2.05c0.17-0.34,0.51-0.85,1.03-0.85c0.51-0.34-0.52-0.17,0-0.34c0.68-0.34,0.34-0.69,0.85-1.03
		c-0.17-0.68,0.35-1.7,1.2-2.39c-0.68-0.34,0.52-1.19,0-1.02c-0.85,0.34,0.52-0.34-0.51-0.68c-1.71,0.68,2.4-1.71-2.23-1.54
		c0.69-0.68,1.54,0.17,2.4,0.17c-1.03-0.85-1.2-2.22-2.57-2.73c-0.51-2.04,2.91-2.04,1.71-2.89c-1.2-0.34-1.37-0.17-2.05,0.51
		c-0.85-0.68-2.4-1.7-0.68-2.22c1.54-3.41,2.39-1.37,1.71,0.17c5.14-2.9,1.2,1.7,3.94,0.85c0.69,1.2,0.35,1.2,0.69,2.39
		c-0.34,1.54,0.68,0.34,1.54,0.52c1.89-3.42-3.08-2.56-1.03-6.99c0.34-2.73,2.23-0.69,3.08-2.39c2.23-3.25,1.89-8.02,0.85-11.09
		c-0.51-1.19-2.74-2.9-2.56-0.85c0.16-1.03-0.87,0.85-0.52-0.51c-0.85,0.34-0.85,0.17-1.03-0.85c-2.4,0.85-0.17-1.37-0.34-2.22
		c0.68-1.7,0.51-3.24,1.37-4.78c1.54-0.34,2.05-0.51,3.08-0.68c1.2,0.17,0-1.36,1.89-0.68c0.51-0.17,1.54,0,0.51,0.51
		c0.03,0.04,0.06,0.04,0.1,0.05c-0.03,0.05,0.04,0.14,0.05,0.02c0.7,0.29,0.77-0.58,1.56-0.58c0.17,0.34,0.51-0.17,0.51-0.51
		c-0.51-0.35-0.68,0.34-0.85-0.52c0.51-1.02-0.35-3.07,1.02-3.41c0.85-0.17,1.54-0.85,1.54,0.68c0.34,0.69,1.37,0.69,1.03-0.85
		c1.37-0.34-0.85-1.37,0.17-1.88c1.37-0.34,0.34,0.17,0.69,0.85c0.34,0.85,1.02,1.71,0.51,2.22c-1.54,6.14-1.71,8.02,2.4,13.99
		c1.02,0.85,0.85-2.05,0.34-2.39c0.17-0.34,1.37-0.17,0.68-0.68c-1.02-1.02,0.17-1.7,0.69-2.05c-0.85-0.51-1.37-2.05-0.85-2.56
		c0-0.68,0.16,1.37,0.51,0.34c0-1.02-1.54-0.68-1.04-2.05c-0.68-0.85-0.51-0.17-0.85,0c-0.51-0.51-0.85-2.05-0.51-2.22
		c-0.69-0.51-0.69-2.04,0.34-1.36c0-0.85,0.51-1.2,0.85-0.17c0-2.05,1.55-1.54,2.74-0.85c-0.34-2.05,0.35-5.29,2.57-5.12
		c1.55-0.68-3.08-3.07-3.25-3.59c-0.85,0.86-1.2,0-0.34-0.16c-1.71-1.03,1.2,0.85,1.37-0.34c0.34-2.39-2.23-2.22-1.03-3.42
		c0.69,1.88,1.2,0.51,1.71,0.17C112.4,68.14,113.43,68.14,114.46,67.97z M188.99,147.8c2.05-2.22,0-5.63-2.4-4.61
		c0.34,0.65-1.56-2.8-2.47,0.04c0-0.21-0.1-0.36-0.38-0.22c0.26-0.17,1.22-0.9,0.79-1.17c-1.2-0.34-1.89,1.88-1.37,0
		c1.71-1.7-0.51-4.95-2.74-3.93c-0.26-0.51-0.62-0.97-1.06-1.35c0-0.06-0.02-0.09-0.07-0.06c-0.53-0.47-1.06-0.84-1.44-1.32
		c-0.34-1.19-3.59,0.68-4.62-1.7c-1.03,0.16,0.51,0.85-0.34,0.51c-1.2,0.17-0.17,1.36-1.03,1.7c-0.51-0.85,0.85-2.05,0.17-2.39
		c-1.54,0.85-2.91,2.22-3.42,3.07c-0.52-1.03-1.54-1.2-2.4-0.35c-4.28-1.19,1.89-5.97-4.63-4.95c-1.02-0.51,3.95-6.82-1.19-3.59
		c-0.17,2.73-4.28,2.22-4.63-0.85c0-1.02-0.16-4.26,1.21-5.63c1.02-0.51,1.71-1.19,3.42-0.85c0.17,0.85,1.03,0.17,1.2,0.34
		c0.85,0.34,0,0,0-0.34c0.17-1.02,2.57-0.85,3.08,0c2.23-1.37,1.03,5.46,2.91,2.9c-1.03-3.92,0.17-5.46,2.91-6.99
		c-0.17,0.16-0.17-0.35,0-0.52c0.17,0.51,0.69-0.85,0.34-0.17c-0.85-0.68,0,0,0.17-0.85c-0.68-0.85,0.35-0.52-0.51-1.37
		c-0.34-0.85,0.51,0.85,0.34-0.68c0.34-1.2,0,2.9,0.69,0.85c0.34-0.34,0-2.05,0.17-1.19c1.2,0.68,0.17-2.05,3.42-1.88
		c-1.2-0.5,0.52-2.55,1.54-2.38c1.2,0-0.17-0.68,0.85-0.51c0.18,0,1.55-0.85,0.69,0c0.52-0.17,0.86,0.34,0.35,0
		c-1.04-0.17-1.37,1.7-0.69,1.36c0.69-0.68,1.03-0.68,2.06-1.19c0.51-0.34-0.69-0.34-1.2-0.85c-0.69-0.35,0.17-1.88-0.69-1.54
		c-0.34-0.51-0.68-0.51,0.17-0.34c1.37-0.69-0.17-1.54-1.37-0.69c-2.74,2.39-1.71,1.2,0-0.51c1.37-1.53,2.57-0.34,4.28-0.51
		c0.52-0.85,2.06-0.68,2.06-1.54c0-0.68-0.34-2.55-1.71-1.19c-0.69,0.17,0-0.52,1.2-0.85c-0.86-0.52-0.69-0.85-1.38-0.69
		c-0.03-0.58-0.28-1.12-0.68-1.53c0.69-0.52,0-1.03,0-1.71c-0.68-0.51,0-0.85-0.68-2.39c0.17-1.2-0.69,0.85-0.86,1.53
		c0-0.68-0.85,0.35-1.03,0.52c0.17-1.37-0.34,0.68-0.17-1.03c-0.85-0.34-0.17-1.53-0.34-1.88c0.68-0.85-0.85-0.85-1.03-1.53
		c-0.17-1.37-1.2-1.03-1.71-1.37c-1.71-1.36-0.69,3.07-1.37,3.25c-1.37,0.68,0.51,2.04,0,3.41c-1.18,1.33-1.97,1.23-2.02,3.09
		c-0.02-0.02-0.02-0.02-0.03-0.02c0,0.04,0.02,0.07,0.03,0.07c-0.02,0.55,0.02,1.23,0.14,2.15c-0.85-1.36-0.34,0.68-1.54-1.36
		c-0.85-0.85,0.85-3.07-0.34-3.24c-2.06-0.51-3.6-3.59-4.97-2.9c1.37-3.07-1.71-0.85,0-4.27c1.03-1.7,2.23-1.7,1.89-2.9
		c2.39,1.54-0.35-1.36-0.18-1.36c0.85,0.85,1.89,1.7,1.71,0.34c0.17,0.17,1.04,0.85,1.54-0.34c1.2-0.52-3.08-3.25-0.34-1.37
		c1.2,2.05,1.37-1.02,2.06-0.68c0.34,1.02,1.2,0.34,0.34-0.51c0.68-0.18,0.17,1.53,0.85,0.85c1.2-0.17,0.86-1.37,0.86-2.05
		c-0.34-0.85,0.17,0,0.51-0.34c0.17-0.68-0.51-1.2-0.34-1.37c-0.67-0.67-1.04-0.81-1.23-0.53c-0.1-0.01,0.02-0.15-0.14-0.15
		c-0.36,0-0.09,0.22,0.09,0.27c-0.06,0.24-0.09,0.5-0.09,0.75c-0.34-0.34-1.37,2.39-1.54,1.54c-0.17-5.8-0.85,0.68-1.2-3.07
		c0.85,0.17-0.17-0.34-0.51-0.51c0.46-0.63,1.06-2.27-0.05-3.46c0.15-0.24,0.23-0.52,0.22-0.8c0,0,0.17-0.17,0-0.17
		c0.17,0,0.17-0.34,0-0.34v0.34c-0.02,0,0,0.02-0.02,0.02c-0.03-0.08-0.08-0.15-0.15-0.19c-0.96-0.79,1.75-0.7-0.29-1.5
		c0.23,0.05,0.55,0.05,0.63-0.04c0-0.34-0.34-0.17-0.68-0.17c-0.17,0.05-0.17,0.1-0.1,0.15c-0.14-0.06-0.27-0.11-0.41-0.15
		c0.52,0.34-0.51-0.34-0.34,0.17c0.02,0.09,0.05,0.19,0.09,0.27c-0.03-0.05-0.17-0.18-0.43-0.1c0.51,1.03,0.51,0.17,0.17,1.2
		c-2.05-2.05-0.51,0.51-0.34,1.7c0.26,0.6,0.39,0.69,0.47,0.53c-0.43,0.65-0.67,1.43,0.21,2.21c0.88,0.1,0.21,0.49-0.12,0.71
		c-0.01-0.01-0.01-0.03-0.05-0.03v0.07c-0.12,0.09-0.13,0.13,0.17,0.09l0.04,0.04c-0.02,0.03-0.04,0.06-0.04,0.13
		c0.05-0.03,0.07-0.05,0.09-0.09c0.16,0.19,0,0.41-0.26,0.61c-0.01-0.19-0.06-0.38-0.15-0.55c-0.17-0.34-0.34-1.53-0.69-0.68
		c-0.61,0.29-0.75,0.63-0.67,0.94c-0.2-0.2-0.48-0.37-0.68-0.32c0.04-0.09-0.02-0.17-0.18-0.26c0,0.17-0.16,0.32-0.02,0.49
		c-0.03,0.18-0.03,0.35,0.01,0.53c-0.2-0.27-0.44-0.53-0.17,0.19c-0.51-0.34-1.54-0.17-1.89-0.51c-0.85-0.72-1.13-1.11-1.38-1.91
		c0.62-0.16,1.01-0.17,1.56,0.37c-0.51,0.35,1.2,0.69,1.54,0.69c0.17-1.2-0.34-0.51-0.51-0.85c0.17-0.52,0.34,0.16,0.85-0.35
		c0,0.17,0.17,0.69,0.35,0.17c0.17-0.17-0.18,0.85,0.34,0.34c0.17-1.36-1.71-1.87-0.85-3.24c0.19-0.71,0.23-1.46,0.12-2.19
		c0.02,0.05,0.04,0.09,0.05,0.14c0.85-0.68,1.03-1.19-0.17-1.53c-0.32,0.09-0.34,0.32-0.24,0.61c-0.24-0.12-0.58,0.24-0.96,1.43
		c0,0.69-0.17,1.54-0.51,0.85c-0.17-0.5,0.68-2.55-0.34-2.21c0.34,1.02-0.17,0.51-1.03,0.34c-0.34-0.17,1.2-0.17,0.17-1.02
		c-3.42,0.68,1.03-1.03-2.05-0.69c-1.89,0.52-2.23,1.54-2.06,2.05c0.17,0,2.06,0.51,1.2,0.34c-0.51,0-2.91,0.34-0.68,1.2
		c1.37-0.34,3.08,2.05,1.2,0.85c-2.74-1.36-2.57,0.85-0.86,1.7c-0.85,1.37,0.68,0.86,1.54,1.37c0.26-0.05,0.46-0.12,0.67-0.17h0.02
		c0-0.01,0-0.01,0.01-0.01c0.18-0.05,0.36-0.1,0.54-0.16c-0.16,0.22-0.83,0.72-1.26,0.52c-0.68,0.85-0.17,1.53-0.68,1.7
		c0.17,1.54-0.17,0-0.35-0.51c0.35-0.85-0.17-0.17,0-0.85c-0.51-1.03-2.22,0.17-3.08-1.2c2.4-1.36,0-1.02-1.71-3.07
		c0.16-1.88-2.74,0.34-1.55-1.03c0.17-1.19-1.03,0-0.68,0.35c-1.04,0.34,0-2.9-0.69-2.05c0,1.02-2.05,0.68-2.74,1.02
		c-0.3-0.17-1.75,0.94-1.22,0.36c0.18,0,0.38-0.12,0.52-0.28c1.54-0.41,3.7-1.4,0.51-0.77c-0.33,0-0.65,0.08-0.95,0.23
		c-0.3,0.14-0.55,0.35-0.76,0.61v-0.15c-0.18,0.17-0.18,0.19-0.18,0.34c-0.14,0.21-0.26,0.44-0.34,0.69
		c-0.52-1.71-2.57-3.93-4.28-4.61c-1.71-1.03-1.89-1.37-3.08-2.05c0.34-0.17-0.17-1.54-1.03-1.03c0.12-0.05,0.23-0.09,0.34-0.17
		c0.41-0.39-0.46-0.8-0.32-0.43c-0.12,0-0.3,0.1-0.53,0.26c0.1,0.13,0.2,0.27,0.29,0.41c-0.94,0.17-1.69-0.74-1.83,0.27
		c-0.69,0.68-0.52-0.35-1.2,0.17c-1.54,1.36-5.14,1.02-4.97,2.39c0.34,2.55,0.85,2.9,1.71,4.09c-1.36,0.17-0.85-2.39-1.19-0.34
		c1.37,0.34-0.52,0.85-1.37,0.17c0.68-1.88-1.03-0.51-2.06-0.51c-1.54,0.34-0.68,1.02,0.17,1.7c-1.02-0.85-1.88,0.52-0.51,1.37
		c2.91,0.34,3.08-1.36,2.23,1.37c-1.72,1.02-3.43,0.68-4.8,1.88c-1.2,1.02-0.51,2.39,0.52,1.7c-0.52,0.34,0,1.03-0.69,0.52
		c-1.89-0.69-0.17,3.24,1.03,0.68c0.51,0.17-2.23,3.92,0.17,2.55c-0.17,0.52,0.34,0.18,0.34,0.86c-0.17,1.03,0.69-1.02,0.69-0.34
		c-0.52,1.03,2.22-0.51,0.17,1.03c-0.38,1.65-3.08,2.46-4.63,3.18v-0.12c0-0.16-0.16,0-0.16,0.18c0.01,0,0.01,0,0.03,0.02
		c-0.43,0.22-0.77,0.44-0.89,0.67c0.43,0.43,0.84-0.3,1.27-0.49c-0.04,0.05-0.07,0.09-0.07,0.14c0.09-0.09,0.17-0.12,0.24-0.17
		c0.03,0,0.06-0.02,0.1,0c-0.51,0.51,1.37-0.34,1.2,0.17c0.91-0.8,2.28-1.45,3.55-2.15c0.04,0.04,0.02,0.07,0.05,0.1
		c0.85,0-0.51,0.68,0.85-0.17c0.32-0.32,1.32-0.63,0.73-0.94c0.04-0.04,0.1-0.05,0.14-0.09c1.37-0.34-0.35-1.2,1.02-1.54
		c0.69,0.17,2.06-2.05,3.94-1.88c-0.85,0.34-0.34,0.85-1.03,0.85c-0.51-1.02-2.57,2.05-1.37,1.37c-2.22,1.54,1.2,0.34,1.37-0.17
		c0.14,0.72,1.12-0.12,0.93-0.61c0.1-0.09,0.17-0.17,0.1-0.24l-0.17,0.14c-0.04-0.06-0.1-0.11-0.17-0.13
		c0.48-0.16,0.67-0.6,0.68,0.02c-0.05,0-0.09-0.02-0.17-0.02c0-0.17,0.17-0.34,0,0c0.07,0.03,0.12,0.03,0.17,0.05v0.12
		c0.02-0.04,0.05-0.07,0.09-0.1c0.07,0,0.09-0.02,0.04-0.04c0.24-0.22,0.31,0.24,0.75-0.2c0.35,0-0.68,0.34,0.18,0.51
		c-1.37-0.17,0.51,0.51,0.34,0.85c1.03,0-0.34,0.51,0.51,0.51c1.54,0,1.03,1.03,2.23,0.85c0.85-0.33-0.34,0.52,0,0.69
		c0.51,0.68,0.68-0.17,0.68,0.68c-0.03,0.14-0.02,0.28,0.03,0.41c0.04,0.13,0.12,0.25,0.22,0.35c-0.31,0.29,0.1,1.84,0.1,0.44
		c0.17,0.17,0.17,0.51,0.34,0.51c0.17-0.34-0.17-0.34-0.34-0.85c0.65,0.63,0.7,0.12,0.41-0.1c-0.05-0.15-0.14-0.29-0.24-0.41
		c0-0.69,0.69,0.34,0.52,0.85c0.02,0.02,0.05,0.02,0.07,0.02c-0.18,0.71-0.57,1.5,0.1,0.83c0.15-0.56,0.51-0.43,0.24-0.97
		c0.44-0.61,0.41-2.59,0.27,0.29c0.94,0.78,0.23,1.08,0.26,1.64c-0.02-0.04-0.06-0.07-0.09-0.11c-0.18,0-0.35,0.18-0.18,0.35
		c-0.17,0.17-0.34,0-0.34,0.17c0.17,0.17,0.34,0,0.34-0.17c0.18,0,0.26-0.04,0.27-0.1c0.05,0.16,0.13,0.32,0.24,0.44
		c0.12,0.3,0.15,0.47,0.13,0.61c-0.01-0.02-0.03-0.05-0.06-0.06c-0.02-0.02-0.05-0.03-0.08-0.04c-0.69,0.17-0.17,0.51-0.34,0.68
		c0,0.14,0.06,0.16,0.15,0.1c-0.06,0.13-0.11,0.27-0.15,0.41c1.54-1.54,0.17,0.85,0.68,0.68c-0.6,0.6-0.1,0.26,0.24-0.22
		c-0.09,0.41,0.61-0.55-0.07,0.4c-0.18,0.21-0.51,0.53-0.6,0.94c-0.07-0.15-0.17-0.26-0.26-0.26c0,0.12,0.1,0.34,0.22,0.51
		c0.02,0.25,0.13,0.49,0.29,0.69l0.05-0.07c0.06,0.09,0.16,0.14,0.29,0.07c-0.31,0.63,0.22-0.16-0.07-0.3
		c0.38-0.21,0.63,0.75,0.07,0.47c0,0-0.17,0.17,0,0.17c0,0,0.02-0.04,0.05-0.07c0.37,0.81-0.35,1.72,0.63,0.9
		c1.02-0.51-0.52,0.34,0.34,0.34c-0.34-0.17,0,1.03-0.34,0c-0.52,0.18-1.2,1.2-0.35,0.52c0.69,0.34-0.17-0.17-0.17,0.34
		c-0.68,0.17,0.17,0.34,0,0.51h-0.03c-0.27-0.24-0.57-0.38-0.82-0.34c-0.35,0.85,1.02,1.53,1.37,2.56c1.61,1.35,0.89-0.68-0.16-1.84
		c0.21,0.05,0.43,0.03,0.67-0.21c-0.85,0.68,0,0.85,0.34,0.17c-0.51,1.7,0.34,1.2,0.85,2.9c0.18,0.52-1.02,2.22-0.51,1.2
		c0.18-0.51-0.17-0.51-1.19-1.2c-0.18,3.07,0,2.73-1.54,6.14c-0.69,3.08,0.34,5.12,0.34,5.8c0.34,1.54,0.68,3.07,2.39,3.42
		c0.69,1.88,1.2,3.59,2.06,5.12c-1.2,0.51,0,0.85,0.85,1.53c-0.34,1.37,2.74,3.93,1.37,1.71c-0.85-1.02-0.85-3.41-2.22-4.78
		c-0.69-2.73,1.2-1.7,1.2,0.34c1.02,2.56,4.62,4.61,3.77,7.51c0.85,1.88,5.65,4.27,7.03,3.25c0.52-0.34,3.08,2.9,4.97,2.05
		c0.85,2.39,1.37,2.73,3.59,3.41c0.17,1.2,0.51-0.34,0.85-0.85c1.2-0.17,1.38,1.87,1.38,3.24c0.17,1.36-2.06,2.73-2.4,4.1
		c-0.34,1.53,1.37,0.34,0.34,1.7c-1.89,1.2,0.34,2.22,0.85,3.59c0.86,1.53,1.21,3.92,2.58,4.61c5.14,2.22,0.85,12.79,0.85,16.71
		c0.17,1.54-0.85,2.39,0.52,2.73c-0.21,0.63-0.24,1.35-0.35,2.11c-0.03-0.02-0.09,0.07-0.17,0.27c-0.09,0.27-0.13,0.64-0.07,0.81
		c-0.04,0.14-0.05,0.26-0.1,0.38c-0.17-0.34-0.34-0.68-0.85,0.17c-0.35,1.03,0.17-0.17,0.68,0.34c-0.34,0.52-0.17,0.52,0.34,0.69
		c-0.68,0-0.34,0.51-0.34,1.19c0,0.68,0.34-0.85,0.17,0.17c-0.34,0.12-0.15,0.53-0.09,0.85c-0.09-0.08-0.18-0.12-0.26,0
		c0.17,0.18,0.17,0.18,0.17,0.35c0.06,0.06,0.1,0.14,0.13,0.22c-0.05,0.03-0.1,0.07-0.13,0.12c0,0.34-0.17,1.02,0.17,0.68
		c0.07,0.32,0.12,0.22,0.15,0c0.1,0.46,0.26,0.72,1.05-0.17l-0.1,0.22c-0.17,0.06-0.29,0.18-0.25,0.36
		c-0.24,0.56,0.69-0.07,0.52-0.57c0.17-0.17,0.34-0.34,0.51-0.68c0.17,0.51-0.85,0.85-0.34,1.02c0.69-0.68-0.51,0.51,0.17,0.34
		c0.85,0.17-0.17,0.17-0.51,0.17c0.34,0.34-0.17,0-0.34,0c-0.52,0.17,0.17,0.17,0.17,0.17c-0.52,0.52-0.17,0,0,0.52
		c-0.17-0.18,0.68-0.85,0.51-0.35c-0.17,0-0.17,0-0.34,0.34c0.34,0.18,0.17-0.34,0.68-0.17c-0.34-0.68-0.17-0.17,0.52-0.51
		c-0.52-0.34,1.54-0.85,0.34-0.85c-1.37-0.51-0.51-2.9,1.03-4.61c0.34-0.51-1.54-1.37-0.18-2.05c0.86-0.51,0.18-1.36,1.2-2.05
		c-0.85-0.51,0.69,0.17,0.35-0.51c0.34-0.68-0.52,0.51-0.35,0c-0.34,0-0.34-1.02,0-1.02c1.72,1.02,0.86-1.54,1.54-1.71
		c2.92-0.34,2.23-2.39,1.72-4.1c1.08,2.01,2.28-0.22,2.98-1.76c0.48-0.22,0.79-0.99,0.96-1.48c0.62-0.91,0.98-1.97,1.04-3.07
		c1.36-1.88,1.88-1.88,3.08-3.08C187.79,152.75,187.79,150.02,188.99,147.8z M82.59,65.07c0.02,0.05,0.02,0.07,0.02,0.11
		C83.04,65.02,83.34,64.81,82.59,65.07z M22.44,113.71c0.02,0.07,0.04,0.12,0,0.15C22.52,113.64,22.48,113.62,22.44,113.71z
		 M140.33,90.66c0.17,0.17,0.34-0.01,0.34-0.18C140.5,90.66,140.33,90.49,140.33,90.66z M133.97,83.32
		C133.97,83.15,134.14,82.98,133.97,83.32L133.97,83.32z M169.11,73.43v0.34C169.28,73.77,169.28,73.43,169.11,73.43z
		 M143.93,101.07c-0.17,0-0.17,0.34,0,0.51C143.93,101.41,143.76,101.24,143.93,101.07z M141.19,95.61c0-0.17,0-0.34-0.17-0.34
		C141.19,95.44,141.19,95.61,141.19,95.61z M141.53,96.46c-0.17,0.17,0.17,0.17,0.17,0H141.53z M141.53,96.29
		C141.7,96.12,141.7,96.29,141.53,96.29L141.53,96.29z M141.53,97.14V96.8C141.36,96.8,141.36,97.14,141.53,97.14z M141.36,95.78
		C141.36,95.61,141.7,95.61,141.36,95.78L141.36,95.78z M140.85,90.83v0.17C141.02,91.01,141.02,90.83,140.85,90.83z M124.22,83.15
		c0,0.17-0.17,0-0.17,0.34C124.22,83.49,124.39,83.32,124.22,83.15z M126.96,75.98c0.17-0.33-0.17-0.33-0.17-0.16
		C126.96,75.82,126.96,75.99,126.96,75.98L126.96,75.98z M165.58,78.41c0.02,0.05-0.07,0.13-0.07,0.13
		C165.66,78.85,165.79,78.49,165.58,78.41c-0.01-0.02-0.02-0.04-0.07-0.04C165.54,78.38,165.56,78.39,165.58,78.41L165.58,78.41z
		 M165.16,78.04c0.35,0,0.18-0.52,0-0.17C165.34,77.87,165.16,78.04,165.16,78.04z M164.31,78.72c-0.17,0.17-0.34,0.17,0,0.34
		C164.31,78.89,164.48,78.72,164.31,78.72z M172.07,96.2c-0.04,0.07-0.05,0.17-0.05,0.43c0.17,0,0.69-0.17,0.34-0.68
		c-0.09,0.26-0.15,0.22-0.22,0.22l0.05-0.05c-0.17,0-0.34,0-0.34,0.17C171.93,96.28,172.01,96.25,172.07,96.2z M172.53,88.78
		c-0.68-0.17-0.68-0.17-1.19,0.17C171.34,89.8,172.36,89.29,172.53,88.78z M172.53,96.46c0.18,0,0.18-0.17,0.18-0.17L172.53,96.46z
		 M173.22,88.1c1.03-0.85-0.69-0.52-0.17-0.85c-0.52-1.37-1.37-2.05-1.71-2.56c-0.69,1.37-1.37,3.25,0,3.25
		C172.36,86.39,172.02,87.41,173.22,88.1z M171.33,100.72C171.33,100.55,171.51,100.72,171.33,100.72L171.33,100.72z M170.48,99.53
		c-0.51,0.18,0.17,0.34,0.51,0.34C170.99,99.53,170.48,99.18,170.48,99.53z M171.85,85.03c0-0.17,0.17-0.51,0-0.51
		C171.68,84.68,171.68,85.03,171.85,85.03z M172.19,85.03C172.02,84.34,172.36,84.51,172.19,85.03
		C172.36,85.2,172.88,85.2,172.19,85.03z M172.71,84.51C172.88,84.51,172.88,84.68,172.71,84.51L172.71,84.51z M173.05,90.14
		c0.51,0.69,0.85-1.36,0-0.51V90.14L173.05,90.14z M180.93,108.74c-0.68,0.34-0.85-0.85-1.02-0.34
		C180.25,108.74,180.59,109.42,180.93,108.74z M180.25,134.84v0.17C180.42,135.01,180.42,134.84,180.25,134.84z M180.59,104.65
		c-0.17-0.52-0.85-1.03-1.37-0.85C179.56,104.3,179.9,104.65,180.59,104.65z M179.39,134.67c0,0,0.17-0.34,0-0.34
		C179.39,134.33,179.22,134.5,179.39,134.67z M179.39,133.13C179.05,133.47,179.73,133.3,179.39,133.13L179.39,133.13z
		 M179.56,133.98c0.18,0,0-0.51-0.17-0.34C179.39,133.82,179.56,133.98,179.56,133.98z M179.22,132.96c0-0.17,0.17-0.34-0.17-0.34
		C179.05,132.62,179.22,132.79,179.22,132.96z M179.05,135.7c0.17,0,0.17-0.18,0.17-0.18C179.05,135.52,178.88,135.53,179.05,135.7z
		 M179.05,132.45C179.22,132.79,179.39,132.45,179.05,132.45L179.05,132.45z M178.88,132.11
		C178.88,131.94,179.05,132.11,178.88,132.11L178.88,132.11z M178.88,131.6C178.88,131.77,179.05,131.6,178.88,131.6L178.88,131.6z
		 M178.36,131.26h-0.18C178.36,131.6,178.36,131.26,178.36,131.26z M176.82,131.42h0.18C176.99,131.26,176.82,131.42,176.82,131.42z
		 M175.96,131.08c-0.69,0.69,1.37,0.52,0.68,0H175.96z M176.13,112.83c-0.17-0.17-0.17,0-0.17,0H176.13z M174.93,131.25
		C175.1,131.25,175.1,131.43,174.93,131.25L174.93,131.25z M175.62,131.08c-0.18-0.68-0.52-0.51-1.55-1.02
		c-2.74-0.17,0.52,1.54-2.05,0.85C172.71,132.11,174.07,130.91,175.62,131.08L175.62,131.08z M172.19,129.89
		c-1.02-1.02-3.08-2.05-4.97-2.39c-0.85,0.17-2.4,1.37-1.2,1.02c1.54-1.19,2.74,0.34,4.45,1.03
		C169.45,130.4,171.51,129.89,172.19,129.89z M169.11,131.25c0.17,0.69,0.85,0.52,1.37,0.35
		C170.14,131.08,169.62,131.08,169.11,131.25z M166.88,128.7c-0.35,0,0,0.16,0.17,0C167.05,128.53,166.54,128.36,166.88,128.7z
		 M170.31,127.16c0.17,0,0.17-0.34,0-0.34C170.14,126.82,170.14,127.16,170.31,127.16z M170.31,126.65c0-0.17,0-0.52-0.17-0.52
		C170.14,126.48,169.97,126.48,170.31,126.65z M169.97,124.77C169.62,124.61,169.62,124.95,169.97,124.77
		C170.48,124.61,170.48,124.77,169.97,124.77z M170.65,125.46c0.34-0.34,0.34-0.85-0.17-0.85
		C170.82,124.78,170.65,125.12,170.65,125.46z M170.48,126.14h0.17C170.82,125.97,170.48,125.97,170.48,126.14z M171.4,126.19
		c0.02-0.06,0-0.09-0.02-0.14c-0.04-0.13-0.12-0.26-0.21-0.26c0.08,0.08,0.15,0.16,0.21,0.26
		C171.4,126.11,171.4,126.16,171.4,126.19c-0.02,0.03-0.04,0.08-0.07,0.12C171.39,126.31,171.4,126.26,171.4,126.19z M171.8,127.37
		c-0.05,0.09,0.09,0.3,0.22,0.3C171.92,127.68,171.84,127.5,171.8,127.37c0.01-0.02,0.01-0.04,0.05-0.04
		C171.76,127.16,171.76,127.25,171.8,127.37z M171.85,126.99c0-0.34-0.34-0.85-0.17-0.34C171.68,126.82,171.51,126.99,171.85,126.99
		z M172.19,127.68c0,0.17,0.17,0.17,0.17,0.17C172.36,127.68,172.36,127.68,172.19,127.68z M172.19,126.82
		C172.36,126.82,172.36,126.99,172.19,126.82L172.19,126.82z M172.19,128.19c0.34,0,0.52-0.17,0.34-0.34
		C172.36,127.85,172.36,128.19,172.19,128.19z M173.22,128.19c-0.17,0-0.17-0.17-0.34,0H173.22z M173.05,129.89
		c0,0.18,0.17,0.18,0.34,0.18C173.22,129.89,173.05,129.72,173.05,129.89z M172.88,129.04c-0.17-0.16-0.52,0.35-0.17,0.18
		C172.88,129.38,173.05,128.87,172.88,129.04z M172.71,130.74c0,0,0.17,0,0.17,0.17C173.05,130.74,172.88,130.57,172.71,130.74z
		 M174.76,113.17c-0.17,0-0.85,0-0.69,0.34C174.59,113.35,175.62,113,174.76,113.17z M157.8,124.78v-0.34
		C157.8,124.44,157.63,124.61,157.8,124.78z M9.09,91.51c0,0.17-0.18,0.17,0,0.34C9.09,91.68,9.43,91.51,9.09,91.51z M138.07,65.65
		c0.07-0.02,0.14-0.04,0.21-0.07l0.03-0.14C138.09,65.49,138.07,65.6,138.07,65.65z M207.5,28.22v46.4l31.02,49.64l0.03,0.06
		l-31.05,49.75v46.4l45.58-73.01v-46.4L207.5,28.22z"/>
</g>
</svg>
