<?xml version="1.0" encoding="utf-8"?>
<!-- Generator: Adobe Adobe Illustrator 29.2.0, SVG Export Plug-In . SVG Version: 6.00 Build 0)  -->
<svg version="1.1" id="Layer_1" xmlns="http://www.w3.org/2000/svg" xmlns:xlink="http://www.w3.org/1999/xlink" x="0px" y="0px"
	 width="278.68px" height="288.14px" viewBox="0 0 278.68 288.14" style="enable-background:new 0 0 278.68 288.14;"
	 xml:space="preserve">
<style type="text/css">
	.st0{fill:#06284C;}
	.st1{fill:#D9D9D9;}
	.st2{fill:#D2D3D4;}
	.st3{fill:#D3D4D5;}
	.st4{fill:#3BD8CB;}
	.st5{fill:#3DDFD0;}
</style>
<rect x="0.28" y="0.52" class="st0" width="278.12" height="287.11"/>
<g>
	<path class="st1" d="M160.3,259.84h-44.39c-38.89,0-70.53-31.82-70.53-70.94h29.98c0,22.58,18.19,40.96,40.54,40.96h44.39
		c22.36,0,40.54-18.37,40.54-40.96v-16.71c0-21.87-29.11-41.76-44.72-46.29c-3.02-0.88-16.76-1.57-30.26-1.98
		c-12.69-0.39-22.76-10.82-22.73-23.52l0.02-6.9c7.94,0.02,50.09,0.35,61.32,3.61c13.43,3.89,29.21,13.21,41.17,24.3
		c16.48,15.28,25.18,32.84,25.18,50.78v16.71C230.83,228.01,199.19,259.84,160.3,259.84z"/>
	<path class="st1" d="M118.38,28.31h44.39c38.89,0,70.53,31.82,70.53,70.94h-29.98c0-22.58-18.19-40.96-40.54-40.96h-44.39
		c-22.36,0-40.54,18.37-40.54,40.96v16.71c0,21.87,29.11,41.76,44.72,46.29c3.02,0.88,16.76,1.57,30.26,1.98
		c12.69,0.39,22.76,10.82,22.73,23.52l-0.02,6.9c-7.94-0.02-50.09-0.35-61.32-3.61c-13.43-3.89-29.21-13.21-41.17-24.3
		c-16.48-15.28-25.18-32.84-25.18-50.78V99.25C47.85,60.13,79.49,28.31,118.38,28.31z"/>
	<path class="st5" d="M186.81,32.55c27.09,9.91,46.48,36.07,46.48,66.7h-29.98c0-22.58-18.19-40.96-40.54-40.96L186.81,32.55z"/>
</g>
</svg>
