<?xml version="1.0" encoding="UTF-8" standalone="no"?>
<!-- Created with Inkscape (http://www.inkscape.org/) -->

<svg
   version="1.1"
   id="svg1"
   width="136.93675"
   height="179.62651"
   viewBox="0 0 136.93674 179.62652"
   xmlns="http://www.w3.org/2000/svg"
   xmlns:svg="http://www.w3.org/2000/svg">
  <defs
     id="defs1">
    <clipPath
       clipPathUnits="userSpaceOnUse"
       id="clipPath85">
      <path
         d="M 0,720 H 1280 V 0 H 0 Z"
         transform="translate(-122.68371,-194.5212)"
         id="path85" />
    </clipPath>
    <clipPath
       clipPathUnits="userSpaceOnUse"
       id="clipPath87">
      <path
         d="M 0,720 H 1280 V 0 H 0 Z"
         transform="translate(-91.823702,-157.81131)"
         id="path87" />
    </clipPath>
    <clipPath
       clipPathUnits="userSpaceOnUse"
       id="clipPath89">
      <path
         d="M 0,720 H 1280 V 0 H 0 Z"
         transform="translate(-92.153702,-204.8212)"
         id="path89" />
    </clipPath>
    <clipPath
       clipPathUnits="userSpaceOnUse"
       id="clipPath91">
      <path
         d="M 0,720 H 1280 V 0 H 0 Z"
         transform="translate(-118.0537,-148.9212)"
         id="path91" />
    </clipPath>
  </defs>
  <g
     id="layer-MC0"
     transform="translate(-26.685165,-650.71832)">
    <g
       id="g194">
      <path
         id="path84"
         d="m 0,0 c -0.26,-6.92 -2.22,-14.49 -5.11,-19.74 -0.68,-1.23 -2.05,-3.02 -3.74,-5.02 -3.71,4.75 -8.66,8.5 -14.36,10.76 1.54,1.74 2.23,2.63 2.4,2.9 2.77,5.02 4.89,17.19 0.07,22.01 l -4.7,4.7 c -2.52,2.53 -5.88,3.92 -9.44,3.92 -3.5,0 -6.77,-1.35 -9.23,-3.8 L -56.58,3.25 c -2.47,-2.47 -3.82,-5.77 -3.8,-9.3 0.01,-3.47 1.35,-6.75 3.78,-9.24 -1.25,-0.66 -2.48,-1.42 -3.68,-2.27 -2.35,-1.65 -4.61,-3.64 -6.75,-5.96 -1.06,-1.14 -2.08,-2.35 -3.03,-3.61 -2.53,2.75 -4.52,5.88 -5.9,9.26 -1.53,3.69 -2.33,7.68 -2.34,11.8 -0.02,8.32 3.19,16.13 9.04,21.99 l 12.48,12.48 c 5.83,5.83 13.61,9.04 21.9,9.04 8.35,0 16.21,-3.25 22.11,-9.16 l 4.7,-4.7 C -2.42,17.94 0.37,9.78 0,0"
         style="fill:#06284c;fill-opacity:1;fill-rule:nonzero;stroke:none"
         transform="matrix(1.3333333,0,0,-1.3333333,163.57827,700.6384)"
         clip-path="url(#clipPath85)" />
      <path
         id="path86"
         d="m 0,0 h 0.01 c -0.02,-0.98 -0.03,-1.95 -0.04,-2.91 -0.01,-0.47 -0.02,-0.93 -0.03,-1.39 -0.04,-2.23 -0.08,-4.39 -0.12,-6.45 -0.01,-0.43 -0.02,-0.86 -0.03,-1.28 0,-0.21 -0.01,-0.41 -0.01,-0.62 -0.01,-0.28 -0.01,-0.55 -0.02,-0.83 -0.03,-1.22 -0.06,-2.41 -0.09,-3.55 -0.02,-0.71 -0.04,-1.4 -0.06,-2.07 -0.02,-0.61 -0.04,-1.2 -0.06,-1.77 -0.01,-0.27 -0.02,-0.52 -0.02,-0.77 -0.03,-0.77 -0.06,-1.5 -0.09,-2.19 -0.05,-1.1 -0.1,-2.11 -0.14,-3.02 -0.03,-0.36 -0.05,-0.7 -0.07,-1.02 -0.14,-2.12 -0.29,-3.57 -0.46,-4.16 -0.63,-2.16 -1.58,-4.45 -2.76,-6.75 -0.02,-0.04 -0.04,-0.08 -0.06,-0.12 -0.13,-0.25 -0.26,-0.49 -0.4,-0.74 h -0.01 c -0.25,-0.47 -0.52,-0.94 -0.79,-1.4 0,-0.01 0,-0.02 -0.01,-0.03 -0.27,-0.46 -0.55,-0.91 -0.84,-1.37 -0.09,-0.15 -0.19,-0.31 -0.3,-0.47 -0.15,-0.24 -0.31,-0.48 -0.48,-0.72 -0.05,-0.09 -0.11,-0.18 -0.19,-0.28 -0.24,-0.37 -0.5,-0.74 -0.77,-1.11 -0.04,-0.06 -0.08,-0.12 -0.13,-0.18 -0.16,-0.23 -0.33,-0.45 -0.5,-0.67 -0.06,-0.09 -0.12,-0.18 -0.19,-0.26 -0.26,-0.35 -0.53,-0.69 -0.8,-1.02 -0.13,-0.16 -0.25,-0.32 -0.38,-0.47 -0.36,-0.44 -0.72,-0.86 -1.09,-1.27 -0.21,-0.24 -0.42,-0.48 -0.64,-0.71 -6.66,-7.18 -14.4,-10.97 -22.39,-10.97 h -6.64 c -0.81,0 -1.6,0.03 -2.4,0.09 -0.38,0.03 -0.76,0.06 -1.13,0.11 -0.39,0.04 -0.77,0.09 -1.14,0.15 -0.6,0.09 -1.2,0.19 -1.79,0.32 -0.4,0.08 -0.79,0.17 -1.18,0.27 -0.17,0.04 -0.35,0.09 -0.53,0.14 -0.25,0.06 -0.5,0.14 -0.75,0.22 -1.89,0.55 -3.71,1.29 -5.43,2.18 -0.33,0.17 -0.66,0.35 -0.98,0.53 -0.72,0.4 -1.43,0.84 -2.11,1.3 -0.53,0.36 -1.05,0.73 -1.56,1.12 -0.28,0.21 -0.56,0.44 -0.84,0.67 -0.13,0.1 -0.26,0.21 -0.39,0.32 -0.73,0.62 -1.44,1.28 -2.11,1.97 -0.25,0.25 -0.5,0.51 -0.73,0.77 -1.08,1.18 -2.07,2.44 -2.96,3.78 -0.15,0.21 -0.29,0.43 -0.42,0.64 -0.19,0.3 -0.38,0.61 -0.56,0.91 -0.02,0.04 -0.04,0.08 -0.06,0.11 -0.17,0.3 -0.34,0.6 -0.5,0.91 -0.18,0.32 -0.35,0.65 -0.51,0.99 -0.12,0.26 -0.25,0.52 -0.37,0.78 -0.03,0.08 -0.07,0.15 -0.1,0.23 -1.71,3.83 -2.66,8.07 -2.66,12.53 v 17.65 c 0,15.59 11.62,28.53 26.71,30.72 0.49,0.06 1,0.12 1.5,0.17 h 0.08 c 0.96,0.09 1.94,0.14 2.92,0.14 h 11.18 c -2.35,-1.65 -4.61,-3.64 -6.75,-5.96 -1.06,-1.14 -2.08,-2.35 -3.03,-3.61 -2.2,-2.85 -4.11,-5.93 -5.6,-9.02 V 0.55 c -2.11,-0.69 -3.99,-1.89 -5.48,-3.46 -0.14,-0.15 -0.28,-0.3 -0.42,-0.46 -0.11,-0.12 -0.21,-0.25 -0.32,-0.38 -0.15,-0.19 -0.29,-0.37 -0.42,-0.56 -0.1,-0.14 -0.2,-0.27 -0.29,-0.41 -0.26,-0.4 -0.51,-0.82 -0.73,-1.25 -0.07,-0.13 -0.14,-0.27 -0.2,-0.42 -0.06,-0.12 -0.12,-0.25 -0.18,-0.39 -0.09,-0.2 -0.17,-0.39 -0.24,-0.59 -0.07,-0.18 -0.13,-0.36 -0.19,-0.54 -0.07,-0.23 -0.14,-0.46 -0.2,-0.7 -0.05,-0.18 -0.09,-0.36 -0.13,-0.55 -0.1,-0.45 -0.17,-0.92 -0.22,-1.38 -0.02,-0.19 -0.04,-0.38 -0.04,-0.57 -0.02,-0.26 -0.03,-0.51 -0.03,-0.77 v -17.65 c 0,-7.23 5.96,-13.12 13.29,-13.12 h 6.64 c 6.72,0 13.73,9.83 15.45,15.38 0,0.06 0.01,0.13 0.01,0.2 0.01,0.23 0.02,0.54 0.04,0.91 0.02,0.75 0.05,1.79 0.07,3.04 0,0.21 0.01,0.43 0.01,0.65 0.03,1.34 0.05,2.9 0.07,4.62 0.01,0.56 0.02,1.14 0.03,1.74 0.01,0.97 0.02,1.98 0.03,3.02 0.01,0.79 0.02,1.59 0.03,2.42 v 0.03 c 0.03,2.48 0.05,5.09 0.07,7.73 0.01,0.15 0.01,0.3 0.01,0.46 l 0.01,0.01 c 2.34,2.37 4.68,3.7 6.52,3.7 h 6.64 C -3.17,1.26 -1.47,0.8 0,0"
         style="fill:#3ddfd0;fill-opacity:1;fill-rule:nonzero;stroke:none"
         transform="matrix(1.3333333,0,0,-1.3333333,122.4316,749.58493)"
         clip-path="url(#clipPath87)" />
      <path
         id="path88"
         d="m 0,0 -0.01,-3 v -0.44 c 0,-0.82 -0.01,-1.67 -0.01,-2.53 0,-1.29 -0.01,-2.62 -0.01,-3.98 -0.01,-1.76 -0.02,-3.58 -0.02,-5.44 -0.01,-1 -0.02,-2.01 -0.02,-3.04 -0.01,-0.48 -0.01,-0.97 -0.01,-1.46 0,-0.8 -0.01,-1.59 -0.01,-2.4 H -0.1 c -1.7,0.26 -3.43,0.39 -5.2,0.39 h -6.64 c -2.12,0 -4.22,-0.24 -6.29,-0.71 0,0.34 0.01,0.67 0.01,1 0,0.32 0.01,0.64 0.01,0.96 0.04,4.41 0.07,7.62 0.11,8.73 0.21,6.69 5.62,11.94 12.32,11.94 h 0.04 L -3,0.01 Z"
         style="fill:#3ddfd0;fill-opacity:1;fill-rule:nonzero;stroke:none"
         transform="matrix(1.3333333,0,0,-1.3333333,122.8716,686.90507)"
         clip-path="url(#clipPath89)" />
      <path
         id="path90"
         d="m 0,0 v -17.65 c 0,-17.11 -13.99,-31.04 -31.2,-31.04 h -3 v 7.52 c 1.05,1.24 2.06,2.56 3,3.91 0.84,1.19 1.63,2.42 2.36,3.66 0.67,1.17 1.3,2.34 1.87,3.52 5.26,1.75 9.05,6.66 9.05,12.43 V 0 c 0,1.83 -0.38,3.57 -1.07,5.15 -1.29,2.98 -3.67,5.4 -6.65,6.75 -0.18,0.09 -0.36,0.17 -0.54,0.25 h -0.01 c -1.54,0.63 -3.24,0.97 -5.01,0.97 h -6.64 c -2.2,0 -4.43,-1.05 -6.49,-2.66 l -0.01,-0.01 c -4.34,-3.38 -7.93,-9.21 -9.01,-12.92 -0.24,-0.96 -0.57,-6.24 -0.77,-14.48 -0.11,-4.93 -4.06,-8.78 -9.02,-8.78 l -5.99,0.01 -3,0.01 0.01,3 c 0.01,4.71 0.16,20.42 1.55,25.2 0.71,2.43 1.81,5.03 3.22,7.61 0,0 0,0.01 0.01,0.01 1.15,2.13 2.51,4.24 4,6.23 0.98,1.31 2.03,2.56 3.11,3.73 3.21,3.46 6.68,6.14 10.31,7.97 0.05,0.03 0.1,0.05 0.15,0.07 1.83,0.93 3.7,1.64 5.61,2.12 2.08,0.54 4.19,0.81 6.32,0.81 h 6.64 c 1.77,0 3.5,-0.15 5.19,-0.43 1.82,-0.3 3.6,-0.77 5.3,-1.37 5.84,-2.08 10.87,-5.84 14.5,-10.69 C -2.31,13.37 0,6.94 0,0"
         style="fill:#06284c;fill-opacity:1;fill-rule:nonzero;stroke:none"
         transform="matrix(1.3333333,0,0,-1.3333333,157.40493,761.4384)"
         clip-path="url(#clipPath91)" />
    </g>
  </g>
</svg>
