<svg width="20" height="20" viewBox="0 0 20 20" fill="none" xmlns="http://www.w3.org/2000/svg">
<path d="M11.8765 18.3346V15.0013C11.8765 14.9783 11.8772 14.955 11.8797 14.9321C11.9775 14.0514 11.725 13.1673 11.1766 12.4712C11.0287 12.2832 11.0014 12.0272 11.1058 11.812C11.2103 11.5966 11.4287 11.4596 11.6681 11.4596C13.9344 11.4596 16.0431 9.97087 16.0431 7.5013C16.0431 7.48801 16.0431 7.47469 16.044 7.46143C16.1015 6.56306 15.8503 5.68075 15.3262 4.9484C15.2203 4.80043 15.1847 4.61331 15.2277 4.43652C15.3868 3.78282 15.4241 3.1076 15.3416 2.44352C14.9849 2.58784 14.4409 2.86947 13.71 3.41764C13.5695 3.52296 13.3909 3.56501 13.2184 3.53239C11.0953 3.13029 8.90761 3.13031 6.78451 3.53239C6.61199 3.56506 6.43345 3.523 6.29298 3.41764C5.55607 2.86498 5.00894 2.58354 4.65235 2.44027C4.5631 3.10212 4.60278 3.77497 4.7728 4.42676C4.81965 4.60636 4.78402 4.7975 4.67595 4.9484C4.15341 5.67746 3.89967 6.56554 3.95818 7.46061C3.95906 7.47416 3.95981 7.48772 3.95981 7.5013C3.95981 9.97093 6.06845 11.4596 8.33481 11.4596C8.57465 11.4597 8.79373 11.5968 8.89796 11.8128C9.00213 12.0289 8.97317 12.2859 8.8239 12.4736C8.54937 12.8186 8.346 13.2114 8.22739 13.63C8.10819 14.0508 8.07305 14.4942 8.12241 14.9313C8.12502 14.9546 8.12647 14.9779 8.12647 15.0013V18.3346C8.12647 18.6798 7.84657 18.9595 7.50147 18.9596C7.1563 18.9596 6.87647 18.6798 6.87647 18.3346V15.0265C6.81647 14.4448 6.86458 13.8538 7.02459 13.2891C7.09001 13.0582 7.17459 12.834 7.27524 12.6177C4.91409 12.2097 2.73083 10.4474 2.71062 7.54199L2.70167 7.32064C2.67936 6.30979 2.95673 5.31563 3.49757 4.46256C3.28904 3.48685 3.31073 2.47898 3.56349 1.51009L3.59848 1.41081C3.69812 1.1899 3.91942 1.04297 4.16814 1.04297V1.66797C4.16814 1.04297 4.16768 1.04297 4.16814 1.04297H4.18523C4.19169 1.04312 4.19915 1.04341 4.2072 1.04378C4.22331 1.04454 4.24259 1.04576 4.26498 1.04785C4.31027 1.0521 4.36861 1.05986 4.43914 1.07308C4.58049 1.09958 4.77168 1.14897 5.01205 1.2391C5.45128 1.4038 6.05388 1.70557 6.82032 2.25553C8.92296 1.88942 11.0792 1.88947 13.1818 2.25553C13.9483 1.70548 14.5508 1.40384 14.9901 1.2391C15.2305 1.14894 15.4216 1.0996 15.563 1.07308C15.6336 1.05984 15.6918 1.0521 15.7372 1.04785C15.7598 1.04573 15.7795 1.04454 15.7957 1.04378C15.8038 1.04341 15.8113 1.04312 15.8177 1.04297H15.834C15.8344 1.0441 15.8347 1.06391 15.8348 1.40755L15.834 1.04297C16.1221 1.04305 16.3736 1.24 16.4419 1.51986C16.6766 2.48369 16.6944 3.48557 16.5005 4.45605C17.0778 5.36376 17.3538 6.42427 17.2931 7.5013L17.2842 7.81217C17.1348 10.5589 15.0111 12.225 12.722 12.6185C13.0669 13.3641 13.2101 14.1936 13.1265 15.0233V18.3346C13.1265 18.6798 12.8466 18.9595 12.5015 18.9596C12.1563 18.9596 11.8765 18.6798 11.8765 18.3346Z" fill="#DAE2FD" fill-opacity="0.69"/>
<path d="M1.66797 12.7096C2.313 12.7096 2.79606 13.0395 3.16292 13.3566C3.34583 13.5147 3.52754 13.6946 3.69027 13.8522C3.85994 14.0166 4.02027 14.1689 4.19076 14.3055C4.52489 14.5732 4.87633 14.7662 5.32031 14.8247C5.76909 14.8838 6.38206 14.8141 7.24821 14.43C7.56371 14.2902 7.93269 14.4327 8.07259 14.7482C8.21237 15.0637 8.06987 15.4327 7.75439 15.5726C6.74149 16.0217 5.89358 16.1604 5.15674 16.0633C4.4152 15.9655 3.85552 15.6377 3.40951 15.2804C3.19003 15.1046 2.9933 14.9182 2.82031 14.7507C2.64033 14.5763 2.49348 14.4306 2.34505 14.3022C2.04923 14.0466 1.85624 13.9596 1.66797 13.9596C1.32279 13.9596 1.04297 13.6798 1.04297 13.3346C1.04297 12.9895 1.32279 12.7096 1.66797 12.7096Z" fill="#DAE2FD" fill-opacity="0.69"/>
</svg>
