<svg width="20" height="20" viewBox="0 0 20 20" fill="none" xmlns="http://www.w3.org/2000/svg">
<path d="M17.7096 11.668C17.7096 10.5076 17.2484 9.39518 16.4279 8.57471C15.6074 7.75424 14.495 7.29297 13.3346 7.29297C12.1743 7.29297 11.0618 7.75424 10.2414 8.57471C9.4209 9.39518 8.95964 10.5076 8.95964 11.668V16.8763H11.043V11.668C11.043 11.0602 11.2846 10.4775 11.7144 10.0477C12.1441 9.61792 12.7268 9.3763 13.3346 9.3763C13.9424 9.3763 14.5251 9.61792 14.9549 10.0477C15.3847 10.4775 15.6263 11.0602 15.6263 11.668V16.8763H17.7096V11.668ZM18.9596 17.5013C18.9596 17.8465 18.6798 18.1263 18.3346 18.1263H15.0013C14.6561 18.1263 14.3763 17.8465 14.3763 17.5013V11.668C14.3763 11.3917 14.2665 11.1268 14.0711 10.9315C13.8758 10.7361 13.6109 10.6263 13.3346 10.6263C13.0584 10.6263 12.7935 10.7361 12.5981 10.9315C12.4028 11.1268 12.293 11.3917 12.293 11.668V17.5013C12.293 17.8465 12.0131 18.1263 11.668 18.1263H8.33464C7.98946 18.1263 7.70964 17.8465 7.70964 17.5013V11.668C7.70964 10.1761 8.30188 8.745 9.35677 7.6901C10.4117 6.63521 11.8428 6.04297 13.3346 6.04297C14.8265 6.04297 16.2576 6.63521 17.3125 7.6901C18.3674 8.745 18.9596 10.1761 18.9596 11.668V17.5013Z" fill="#DAE2FD" fill-opacity="0.69"/>
<path d="M5.0013 6.8763C5.34648 6.8763 5.6263 7.15612 5.6263 7.5013V17.5013C5.6263 17.8465 5.34648 18.1263 5.0013 18.1263H1.66797C1.32279 18.1263 1.04297 17.8465 1.04297 17.5013V7.5013C1.04297 7.15612 1.32279 6.8763 1.66797 6.8763H5.0013ZM2.29297 16.8763H4.3763V8.1263H2.29297V16.8763Z" fill="#DAE2FD" fill-opacity="0.69"/>
<path d="M4.3763 3.33464C4.3763 2.75934 3.90993 2.29297 3.33464 2.29297C2.75934 2.29297 2.29297 2.75934 2.29297 3.33464C2.29297 3.90993 2.75934 4.3763 3.33464 4.3763C3.90993 4.3763 4.3763 3.90993 4.3763 3.33464ZM5.6263 3.33464C5.6263 4.60029 4.60029 5.6263 3.33464 5.6263C2.06898 5.6263 1.04297 4.60029 1.04297 3.33464C1.04297 2.06898 2.06898 1.04297 3.33464 1.04297C4.60029 1.04297 5.6263 2.06898 5.6263 3.33464Z" fill="#DAE2FD" fill-opacity="0.69"/>
</svg>
