<svg width="22" height="22" viewBox="0 0 22 22" fill="none" xmlns="http://www.w3.org/2000/svg">
<path d="M20 10.75C20 5.64137 15.8586 1.5 10.75 1.5C5.64137 1.5 1.5 5.64137 1.5 10.75C1.5 15.8586 5.64137 20 10.75 20C15.8586 20 20 15.8586 20 10.75ZM21.5 10.75C21.5 16.6871 16.6871 21.5 10.75 21.5C4.81294 21.5 0 16.6871 0 10.75C0 4.81294 4.81294 0 10.75 0C16.6871 0 21.5 4.81294 21.5 10.75Z" fill="#525252"/>
<path d="M14 10.75C14 7.49132 12.8427 4.34819 10.75 1.87305C8.65731 4.34819 7.5 7.49132 7.5 10.75C7.5 14.0084 8.65761 17.1509 10.75 19.626C12.8424 17.1509 14 14.0084 14 10.75ZM15.5 10.75C15.5 14.6658 13.9935 18.432 11.293 21.2676C11.1514 21.4161 10.9551 21.5 10.75 21.5C10.5449 21.5 10.3486 21.4161 10.207 21.2676C7.50645 18.432 6 14.6658 6 10.75C6 6.83416 7.50645 3.06803 10.207 0.232422L10.2627 0.179688C10.3979 0.0641911 10.5705 0 10.75 0C10.9551 0 11.1514 0.0839387 11.293 0.232422C13.9935 3.06803 15.5 6.83416 15.5 10.75Z" fill="#525252"/>
<path d="M20.75 10C21.1642 10 21.5 10.3358 21.5 10.75C21.5 11.1642 21.1642 11.5 20.75 11.5H0.75C0.335786 11.5 0 11.1642 0 10.75C0 10.3358 0.335786 10 0.75 10H20.75Z" fill="#525252"/>
</svg>
