<svg width="18" height="22" viewBox="0 0 18 22" fill="none" xmlns="http://www.w3.org/2000/svg">
<path d="M10.75 0C11.1642 0 11.5 0.335786 11.5 0.75C11.5 1.16421 11.1642 1.5 10.75 1.5H6.75C6.33579 1.5 6 1.16421 6 0.75C6 0.335786 6.33579 0 6.75 0H10.75Z" fill="#199589"/>
<path d="M11.2197 9.21973C11.5126 8.92683 11.9874 8.92683 12.2803 9.21973C12.5732 9.51262 12.5732 9.98738 12.2803 10.2803L9.28027 13.2803C8.98738 13.5732 8.51262 13.5732 8.21973 13.2803C7.92683 12.9874 7.92683 12.5126 8.21973 12.2197L11.2197 9.21973Z" fill="#199589"/>
<path d="M16 12.75C16 8.74594 12.7541 5.5 8.75 5.5C4.74594 5.5 1.5 8.74594 1.5 12.75C1.5 16.7541 4.74594 20 8.75 20C12.7541 20 16 16.7541 16 12.75ZM17.5 12.75C17.5 17.5825 13.5825 21.5 8.75 21.5C3.91751 21.5 0 17.5825 0 12.75C0 7.91751 3.91751 4 8.75 4C13.5825 4 17.5 7.91751 17.5 12.75Z" fill="#199589"/>
</svg>
